<mxfile host="app.diagrams.net" agent="Mozilla/5.0 (Windows NT 10.0; Win64; x64) AppleWebKit/537.36 (KHTML, like Gecko) Chrome/128.0.0.0 Safari/537.36 Edg/128.0.0.0" version="24.7.14" pages="2">
  <diagram name="Robustness Diagram" id="ejmV2qgmTtuN_z0c3J_5">
    <mxGraphModel dx="4780" dy="4305" grid="1" gridSize="10" guides="1" tooltips="1" connect="1" arrows="1" fold="1" page="1" pageScale="1" pageWidth="850" pageHeight="1100" math="0" shadow="0">
      <root>
        <mxCell id="0" />
        <mxCell id="1" parent="0" />
        <mxCell id="f9h9eiQ0I-5DAJY4tY8l-11" style="edgeStyle=orthogonalEdgeStyle;rounded=0;orthogonalLoop=1;jettySize=auto;html=1;" parent="1" source="f9h9eiQ0I-5DAJY4tY8l-2" edge="1" target="9EQRnSQ-POrHLfq1BQXv-19">
          <mxGeometry relative="1" as="geometry">
            <mxPoint x="160" y="-1585.5" as="targetPoint" />
          </mxGeometry>
        </mxCell>
        <mxCell id="f9h9eiQ0I-5DAJY4tY8l-2" value="Actor" style="shape=umlActor;verticalLabelPosition=bottom;verticalAlign=top;html=1;outlineConnect=0;" parent="1" vertex="1">
          <mxGeometry y="-1615.5" width="30" height="60" as="geometry" />
        </mxCell>
        <mxCell id="f9h9eiQ0I-5DAJY4tY8l-3" value="" style="strokeWidth=2;html=1;shape=mxgraph.flowchart.start_2;whiteSpace=wrap;" parent="1" vertex="1">
          <mxGeometry x="-505" y="-410" width="80" height="80" as="geometry" />
        </mxCell>
        <mxCell id="f9h9eiQ0I-5DAJY4tY8l-5" value="Boundary Object" style="shape=umlBoundary;whiteSpace=wrap;html=1;" parent="1" vertex="1">
          <mxGeometry x="-520" y="-300" width="100" height="80" as="geometry" />
        </mxCell>
        <mxCell id="f9h9eiQ0I-5DAJY4tY8l-6" value="Entity Object" style="ellipse;shape=umlEntity;whiteSpace=wrap;html=1;" parent="1" vertex="1">
          <mxGeometry x="-510" y="-180" width="80" height="80" as="geometry" />
        </mxCell>
        <mxCell id="f9h9eiQ0I-5DAJY4tY8l-7" value="Control Object" style="ellipse;shape=umlControl;whiteSpace=wrap;html=1;" parent="1" vertex="1">
          <mxGeometry x="-510" y="-60" width="70" height="80" as="geometry" />
        </mxCell>
        <mxCell id="f9h9eiQ0I-5DAJY4tY8l-10" value="Actor" style="shape=umlActor;verticalLabelPosition=bottom;verticalAlign=top;html=1;outlineConnect=0;" parent="1" vertex="1">
          <mxGeometry x="-320" y="-450" width="30" height="60" as="geometry" />
        </mxCell>
        <mxCell id="f9h9eiQ0I-5DAJY4tY8l-70" style="edgeStyle=orthogonalEdgeStyle;rounded=0;orthogonalLoop=1;jettySize=auto;html=1;" parent="1" source="f9h9eiQ0I-5DAJY4tY8l-12" edge="1">
          <mxGeometry relative="1" as="geometry">
            <mxPoint x="270" y="-1585.5000000000002" as="targetPoint" />
          </mxGeometry>
        </mxCell>
        <mxCell id="f9h9eiQ0I-5DAJY4tY8l-12" value="Display&lt;div&gt;Login&amp;nbsp;&lt;/div&gt;&lt;div&gt;Page&lt;/div&gt;" style="ellipse;shape=umlControl;whiteSpace=wrap;html=1;" parent="1" vertex="1">
          <mxGeometry x="410" y="-1625.5" width="70" height="80" as="geometry" />
        </mxCell>
        <mxCell id="f9h9eiQ0I-5DAJY4tY8l-14" value="Enter Email&lt;div&gt;&amp;amp; Password&lt;/div&gt;" style="ellipse;shape=umlControl;whiteSpace=wrap;html=1;" parent="1" vertex="1">
          <mxGeometry x="605" y="-1465.5" width="70" height="80" as="geometry" />
        </mxCell>
        <mxCell id="f9h9eiQ0I-5DAJY4tY8l-15" style="edgeStyle=orthogonalEdgeStyle;rounded=0;orthogonalLoop=1;jettySize=auto;html=1;entryX=0.505;entryY=1.004;entryDx=0;entryDy=0;entryPerimeter=0;" parent="1" source="f9h9eiQ0I-5DAJY4tY8l-14" target="f9h9eiQ0I-5DAJY4tY8l-12" edge="1">
          <mxGeometry relative="1" as="geometry" />
        </mxCell>
        <mxCell id="f9h9eiQ0I-5DAJY4tY8l-27" style="edgeStyle=orthogonalEdgeStyle;rounded=0;orthogonalLoop=1;jettySize=auto;html=1;entryX=0;entryY=0.5;entryDx=0;entryDy=0;" parent="1" source="f9h9eiQ0I-5DAJY4tY8l-16" target="f9h9eiQ0I-5DAJY4tY8l-19" edge="1">
          <mxGeometry relative="1" as="geometry" />
        </mxCell>
        <mxCell id="f9h9eiQ0I-5DAJY4tY8l-35" style="edgeStyle=orthogonalEdgeStyle;rounded=0;orthogonalLoop=1;jettySize=auto;html=1;" parent="1" source="f9h9eiQ0I-5DAJY4tY8l-16" target="f9h9eiQ0I-5DAJY4tY8l-34" edge="1">
          <mxGeometry relative="1" as="geometry" />
        </mxCell>
        <mxCell id="f9h9eiQ0I-5DAJY4tY8l-36" value="NO" style="edgeLabel;html=1;align=center;verticalAlign=middle;resizable=0;points=[];" parent="f9h9eiQ0I-5DAJY4tY8l-35" vertex="1" connectable="0">
          <mxGeometry x="-0.1229" y="2" relative="1" as="geometry">
            <mxPoint as="offset" />
          </mxGeometry>
        </mxCell>
        <mxCell id="f9h9eiQ0I-5DAJY4tY8l-16" value="Does&amp;nbsp;&lt;div&gt;Account&lt;/div&gt;&lt;div&gt;Exists?&lt;/div&gt;" style="ellipse;shape=umlControl;whiteSpace=wrap;html=1;" parent="1" vertex="1">
          <mxGeometry x="605" y="-1315.5" width="70" height="80" as="geometry" />
        </mxCell>
        <mxCell id="f9h9eiQ0I-5DAJY4tY8l-18" style="edgeStyle=orthogonalEdgeStyle;rounded=0;orthogonalLoop=1;jettySize=auto;html=1;entryX=0.467;entryY=0.19;entryDx=0;entryDy=0;entryPerimeter=0;" parent="1" source="f9h9eiQ0I-5DAJY4tY8l-14" target="f9h9eiQ0I-5DAJY4tY8l-16" edge="1">
          <mxGeometry relative="1" as="geometry">
            <Array as="points">
              <mxPoint x="638" y="-1365.5" />
            </Array>
          </mxGeometry>
        </mxCell>
        <mxCell id="f9h9eiQ0I-5DAJY4tY8l-19" value="Database&lt;br&gt;Account" style="ellipse;shape=umlEntity;whiteSpace=wrap;html=1;" parent="1" vertex="1">
          <mxGeometry x="755" y="-1465.5" width="80" height="80" as="geometry" />
        </mxCell>
        <mxCell id="f9h9eiQ0I-5DAJY4tY8l-29" value="Is password&lt;div&gt;correct?&lt;/div&gt;" style="ellipse;shape=umlControl;whiteSpace=wrap;html=1;" parent="1" vertex="1">
          <mxGeometry x="605" y="-1175.5" width="70" height="80" as="geometry" />
        </mxCell>
        <mxCell id="f9h9eiQ0I-5DAJY4tY8l-32" style="edgeStyle=orthogonalEdgeStyle;rounded=0;orthogonalLoop=1;jettySize=auto;html=1;entryX=0.495;entryY=0.055;entryDx=0;entryDy=0;entryPerimeter=0;" parent="1" source="f9h9eiQ0I-5DAJY4tY8l-16" target="f9h9eiQ0I-5DAJY4tY8l-29" edge="1">
          <mxGeometry relative="1" as="geometry" />
        </mxCell>
        <mxCell id="f9h9eiQ0I-5DAJY4tY8l-33" value="YES" style="edgeLabel;html=1;align=center;verticalAlign=middle;resizable=0;points=[];" parent="f9h9eiQ0I-5DAJY4tY8l-32" vertex="1" connectable="0">
          <mxGeometry x="-0.334" y="-4" relative="1" as="geometry">
            <mxPoint x="4" y="7" as="offset" />
          </mxGeometry>
        </mxCell>
        <mxCell id="f9h9eiQ0I-5DAJY4tY8l-34" value="&lt;div style=&quot;font-size: 10px;&quot;&gt;Display Email or Password&amp;nbsp;&lt;/div&gt;&lt;div style=&quot;font-size: 10px;&quot;&gt;Incorrect&lt;/div&gt;" style="ellipse;shape=umlControl;whiteSpace=wrap;html=1;fillColor=#f8cecc;strokeColor=#b85450;" parent="1" vertex="1">
          <mxGeometry x="405" y="-1315.5" width="70" height="80" as="geometry" />
        </mxCell>
        <mxCell id="f9h9eiQ0I-5DAJY4tY8l-37" value="Retrieve&lt;div&gt;Account&lt;br&gt;Information&lt;/div&gt;" style="ellipse;shape=umlControl;whiteSpace=wrap;html=1;" parent="1" vertex="1">
          <mxGeometry x="765" y="-1175.5" width="70" height="80" as="geometry" />
        </mxCell>
        <mxCell id="f9h9eiQ0I-5DAJY4tY8l-38" style="edgeStyle=orthogonalEdgeStyle;rounded=0;orthogonalLoop=1;jettySize=auto;html=1;entryX=0.51;entryY=1.05;entryDx=0;entryDy=0;entryPerimeter=0;" parent="1" source="f9h9eiQ0I-5DAJY4tY8l-29" target="f9h9eiQ0I-5DAJY4tY8l-34" edge="1">
          <mxGeometry relative="1" as="geometry" />
        </mxCell>
        <mxCell id="f9h9eiQ0I-5DAJY4tY8l-41" value="NO" style="edgeLabel;html=1;align=center;verticalAlign=middle;resizable=0;points=[];" parent="f9h9eiQ0I-5DAJY4tY8l-38" vertex="1" connectable="0">
          <mxGeometry x="-0.4961" y="-1" relative="1" as="geometry">
            <mxPoint as="offset" />
          </mxGeometry>
        </mxCell>
        <mxCell id="f9h9eiQ0I-5DAJY4tY8l-39" style="edgeStyle=orthogonalEdgeStyle;rounded=0;orthogonalLoop=1;jettySize=auto;html=1;entryX=0.001;entryY=0.51;entryDx=0;entryDy=0;entryPerimeter=0;" parent="1" source="f9h9eiQ0I-5DAJY4tY8l-29" target="f9h9eiQ0I-5DAJY4tY8l-37" edge="1">
          <mxGeometry relative="1" as="geometry" />
        </mxCell>
        <mxCell id="f9h9eiQ0I-5DAJY4tY8l-40" value="YES" style="edgeLabel;html=1;align=center;verticalAlign=middle;resizable=0;points=[];" parent="f9h9eiQ0I-5DAJY4tY8l-39" vertex="1" connectable="0">
          <mxGeometry x="-0.0877" y="1" relative="1" as="geometry">
            <mxPoint as="offset" />
          </mxGeometry>
        </mxCell>
        <mxCell id="f9h9eiQ0I-5DAJY4tY8l-42" value="Start&lt;div&gt;Authenticated&lt;/div&gt;&lt;div&gt;Session&lt;/div&gt;" style="ellipse;shape=umlControl;whiteSpace=wrap;html=1;" parent="1" vertex="1">
          <mxGeometry x="765" y="-1315.5" width="70" height="80" as="geometry" />
        </mxCell>
        <mxCell id="f9h9eiQ0I-5DAJY4tY8l-43" style="edgeStyle=orthogonalEdgeStyle;rounded=0;orthogonalLoop=1;jettySize=auto;html=1;entryX=0.495;entryY=1.033;entryDx=0;entryDy=0;entryPerimeter=0;" parent="1" source="f9h9eiQ0I-5DAJY4tY8l-37" target="f9h9eiQ0I-5DAJY4tY8l-42" edge="1">
          <mxGeometry relative="1" as="geometry" />
        </mxCell>
        <mxCell id="f9h9eiQ0I-5DAJY4tY8l-45" style="edgeStyle=orthogonalEdgeStyle;rounded=0;orthogonalLoop=1;jettySize=auto;html=1;" parent="1" source="f9h9eiQ0I-5DAJY4tY8l-44" target="f9h9eiQ0I-5DAJY4tY8l-42" edge="1">
          <mxGeometry relative="1" as="geometry" />
        </mxCell>
        <mxCell id="f9h9eiQ0I-5DAJY4tY8l-44" value="Display&lt;div&gt;Homepage&lt;/div&gt;" style="ellipse;shape=umlControl;whiteSpace=wrap;html=1;" parent="1" vertex="1">
          <mxGeometry x="905" y="-1315.5" width="70" height="80" as="geometry" />
        </mxCell>
        <mxCell id="f9h9eiQ0I-5DAJY4tY8l-46" value="Dashboard&lt;div&gt;Page&lt;/div&gt;" style="shape=umlBoundary;whiteSpace=wrap;html=1;" parent="1" vertex="1">
          <mxGeometry x="885" y="-1165.5" width="90" height="80" as="geometry" />
        </mxCell>
        <mxCell id="f9h9eiQ0I-5DAJY4tY8l-47" value="Login&lt;div&gt;Page&lt;/div&gt;" style="shape=umlBoundary;whiteSpace=wrap;html=1;" parent="1" vertex="1">
          <mxGeometry x="170" y="-1625.5" width="90" height="80" as="geometry" />
        </mxCell>
        <mxCell id="f9h9eiQ0I-5DAJY4tY8l-48" value="Login&lt;div&gt;Page&lt;/div&gt;" style="shape=umlBoundary;whiteSpace=wrap;html=1;" parent="1" vertex="1">
          <mxGeometry x="-260" y="-520" width="90" height="80" as="geometry" />
        </mxCell>
        <mxCell id="f9h9eiQ0I-5DAJY4tY8l-49" style="edgeStyle=orthogonalEdgeStyle;rounded=0;orthogonalLoop=1;jettySize=auto;html=1;entryX=0.448;entryY=1.008;entryDx=0;entryDy=0;entryPerimeter=0;" parent="1" edge="1">
          <mxGeometry relative="1" as="geometry">
            <mxPoint x="939.29" y="-1165.5" as="sourcePoint" />
            <mxPoint x="940.6500000000001" y="-1234.8600000000001" as="targetPoint" />
            <Array as="points">
              <mxPoint x="941" y="-1165.5" />
              <mxPoint x="941" y="-1200.5" />
            </Array>
          </mxGeometry>
        </mxCell>
        <mxCell id="f9h9eiQ0I-5DAJY4tY8l-50" value="Third&lt;div&gt;Login&lt;br&gt;Failure&lt;/div&gt;" style="ellipse;shape=umlControl;whiteSpace=wrap;html=1;fillColor=#f8cecc;strokeColor=#b85450;" parent="1" vertex="1">
          <mxGeometry x="405" y="-1465.5" width="70" height="80" as="geometry" />
        </mxCell>
        <mxCell id="f9h9eiQ0I-5DAJY4tY8l-55" style="edgeStyle=orthogonalEdgeStyle;rounded=0;orthogonalLoop=1;jettySize=auto;html=1;" parent="1" source="f9h9eiQ0I-5DAJY4tY8l-53" target="f9h9eiQ0I-5DAJY4tY8l-19" edge="1">
          <mxGeometry relative="1" as="geometry">
            <mxPoint x="240" y="-1025.5" as="targetPoint" />
            <Array as="points">
              <mxPoint x="240" y="-1035.5" />
              <mxPoint x="1025" y="-1035.5" />
              <mxPoint x="1025" y="-1425.5" />
            </Array>
          </mxGeometry>
        </mxCell>
        <mxCell id="f9h9eiQ0I-5DAJY4tY8l-53" value="Freeze&lt;div&gt;User&amp;nbsp;&lt;br&gt;Account&lt;/div&gt;" style="ellipse;shape=umlControl;whiteSpace=wrap;html=1;fillColor=#f8cecc;strokeColor=#b85450;" parent="1" vertex="1">
          <mxGeometry x="205" y="-1475.5" width="70" height="80" as="geometry" />
        </mxCell>
        <mxCell id="f9h9eiQ0I-5DAJY4tY8l-54" style="edgeStyle=orthogonalEdgeStyle;rounded=0;orthogonalLoop=1;jettySize=auto;html=1;entryX=1.018;entryY=0.607;entryDx=0;entryDy=0;entryPerimeter=0;" parent="1" source="f9h9eiQ0I-5DAJY4tY8l-50" target="f9h9eiQ0I-5DAJY4tY8l-53" edge="1">
          <mxGeometry relative="1" as="geometry">
            <Array as="points">
              <mxPoint x="276" y="-1425.5" />
            </Array>
          </mxGeometry>
        </mxCell>
        <mxCell id="f9h9eiQ0I-5DAJY4tY8l-69" style="edgeStyle=orthogonalEdgeStyle;rounded=0;orthogonalLoop=1;jettySize=auto;html=1;" parent="1" source="f9h9eiQ0I-5DAJY4tY8l-56" edge="1">
          <mxGeometry relative="1" as="geometry">
            <mxPoint x="450" y="-1635.5000000000002" as="targetPoint" />
          </mxGeometry>
        </mxCell>
        <mxCell id="f9h9eiQ0I-5DAJY4tY8l-56" value="Click&lt;div&gt;Reset&lt;/div&gt;&lt;div&gt;Password&lt;/div&gt;" style="ellipse;shape=umlControl;whiteSpace=wrap;html=1;fillColor=#f8cecc;strokeColor=#b85450;" parent="1" vertex="1">
          <mxGeometry x="415" y="-1775.5" width="70" height="80" as="geometry" />
        </mxCell>
        <mxCell id="f9h9eiQ0I-5DAJY4tY8l-59" value="Reset&amp;nbsp;&lt;div&gt;Password&lt;/div&gt;&lt;div&gt;Page&lt;/div&gt;" style="shape=umlBoundary;whiteSpace=wrap;html=1;fillColor=#f8cecc;strokeColor=#b85450;" parent="1" vertex="1">
          <mxGeometry x="395" y="-1925.5" width="90" height="80" as="geometry" />
        </mxCell>
        <mxCell id="f9h9eiQ0I-5DAJY4tY8l-60" style="edgeStyle=orthogonalEdgeStyle;rounded=0;orthogonalLoop=1;jettySize=auto;html=1;entryX=0.359;entryY=0.113;entryDx=0;entryDy=0;entryPerimeter=0;" parent="1" source="f9h9eiQ0I-5DAJY4tY8l-59" target="f9h9eiQ0I-5DAJY4tY8l-56" edge="1">
          <mxGeometry relative="1" as="geometry" />
        </mxCell>
        <mxCell id="f9h9eiQ0I-5DAJY4tY8l-61" value="Input&lt;div&gt;Registered&lt;/div&gt;&lt;div&gt;Email&lt;/div&gt;" style="ellipse;shape=umlControl;whiteSpace=wrap;html=1;fillColor=#f8cecc;strokeColor=#b85450;" parent="1" vertex="1">
          <mxGeometry x="585" y="-1925.5" width="70" height="80" as="geometry" />
        </mxCell>
        <mxCell id="f9h9eiQ0I-5DAJY4tY8l-63" style="edgeStyle=orthogonalEdgeStyle;rounded=0;orthogonalLoop=1;jettySize=auto;html=1;entryX=1.041;entryY=0.488;entryDx=0;entryDy=0;entryPerimeter=0;" parent="1" source="f9h9eiQ0I-5DAJY4tY8l-61" target="f9h9eiQ0I-5DAJY4tY8l-59" edge="1">
          <mxGeometry relative="1" as="geometry" />
        </mxCell>
        <mxCell id="f9h9eiQ0I-5DAJY4tY8l-65" style="edgeStyle=orthogonalEdgeStyle;rounded=0;orthogonalLoop=1;jettySize=auto;html=1;" parent="1" source="f9h9eiQ0I-5DAJY4tY8l-64" edge="1">
          <mxGeometry relative="1" as="geometry">
            <mxPoint x="665" y="-1885.5" as="targetPoint" />
          </mxGeometry>
        </mxCell>
        <mxCell id="f9h9eiQ0I-5DAJY4tY8l-66" style="edgeStyle=orthogonalEdgeStyle;rounded=0;orthogonalLoop=1;jettySize=auto;html=1;" parent="1" source="f9h9eiQ0I-5DAJY4tY8l-64" edge="1">
          <mxGeometry relative="1" as="geometry">
            <mxPoint x="795" y="-1475.5000000000002" as="targetPoint" />
          </mxGeometry>
        </mxCell>
        <mxCell id="f9h9eiQ0I-5DAJY4tY8l-64" value="&lt;font style=&quot;font-size: 10px;&quot;&gt;Email&lt;/font&gt;&lt;div style=&quot;font-size: 10px;&quot;&gt;&lt;font style=&quot;font-size: 10px;&quot;&gt;Reset&lt;/font&gt;&lt;/div&gt;&lt;div style=&quot;font-size: 10px;&quot;&gt;&lt;font style=&quot;font-size: 10px;&quot;&gt;Password&lt;/font&gt;&lt;/div&gt;&lt;div style=&quot;font-size: 10px;&quot;&gt;&lt;font style=&quot;font-size: 10px;&quot;&gt;to&lt;/font&gt;&lt;/div&gt;&lt;div style=&quot;font-size: 10px;&quot;&gt;&lt;font style=&quot;font-size: 10px;&quot;&gt;User&lt;/font&gt;&lt;/div&gt;" style="ellipse;shape=umlControl;whiteSpace=wrap;html=1;fillColor=#f8cecc;strokeColor=#b85450;" parent="1" vertex="1">
          <mxGeometry x="760" y="-1925.5" width="70" height="80" as="geometry" />
        </mxCell>
        <mxCell id="f9h9eiQ0I-5DAJY4tY8l-67" value="&lt;font style=&quot;font-size: 32px;&quot;&gt;LOGIN&lt;/font&gt;" style="text;html=1;align=center;verticalAlign=middle;resizable=0;points=[];autosize=1;strokeColor=none;fillColor=none;" parent="1" vertex="1">
          <mxGeometry x="555" y="-1997.5" width="120" height="50" as="geometry" />
        </mxCell>
        <mxCell id="f9h9eiQ0I-5DAJY4tY8l-68" style="edgeStyle=orthogonalEdgeStyle;rounded=0;orthogonalLoop=1;jettySize=auto;html=1;entryX=1.04;entryY=0.524;entryDx=0;entryDy=0;entryPerimeter=0;" parent="1" source="f9h9eiQ0I-5DAJY4tY8l-14" target="f9h9eiQ0I-5DAJY4tY8l-12" edge="1">
          <mxGeometry relative="1" as="geometry">
            <Array as="points">
              <mxPoint x="640" y="-1583.5" />
            </Array>
          </mxGeometry>
        </mxCell>
        <mxCell id="f9h9eiQ0I-5DAJY4tY8l-71" value="Bagian&lt;div&gt;Akademik&lt;/div&gt;" style="shape=umlActor;verticalLabelPosition=bottom;verticalAlign=top;html=1;" parent="1" vertex="1">
          <mxGeometry x="105" y="-641.89" width="30" height="60" as="geometry" />
        </mxCell>
        <mxCell id="f9h9eiQ0I-5DAJY4tY8l-75" style="edgeStyle=orthogonalEdgeStyle;rounded=0;orthogonalLoop=1;jettySize=auto;html=1;endArrow=none;endFill=0;" parent="1" source="f9h9eiQ0I-5DAJY4tY8l-74" edge="1">
          <mxGeometry relative="1" as="geometry">
            <mxPoint x="145" y="-601.89" as="targetPoint" />
          </mxGeometry>
        </mxCell>
        <mxCell id="f9h9eiQ0I-5DAJY4tY8l-74" value="Dashboard&lt;div&gt;Page&lt;/div&gt;" style="shape=umlBoundary;whiteSpace=wrap;html=1;" parent="1" vertex="1">
          <mxGeometry x="295" y="-641.89" width="100" height="80" as="geometry" />
        </mxCell>
        <mxCell id="f9h9eiQ0I-5DAJY4tY8l-77" style="edgeStyle=orthogonalEdgeStyle;rounded=0;orthogonalLoop=1;jettySize=auto;html=1;entryX=1;entryY=0.499;entryDx=0;entryDy=0;entryPerimeter=0;endArrow=none;endFill=0;" parent="1" source="f9h9eiQ0I-5DAJY4tY8l-76" target="f9h9eiQ0I-5DAJY4tY8l-74" edge="1">
          <mxGeometry relative="1" as="geometry">
            <mxPoint x="405" y="-601.89" as="targetPoint" />
          </mxGeometry>
        </mxCell>
        <mxCell id="f9h9eiQ0I-5DAJY4tY8l-76" value="Display&lt;div&gt;Dashboard&lt;/div&gt;&lt;div&gt;Page&lt;/div&gt;" style="ellipse;shape=umlControl;whiteSpace=wrap;html=1;" parent="1" vertex="1">
          <mxGeometry x="510" y="-641.89" width="70" height="80" as="geometry" />
        </mxCell>
        <mxCell id="f9h9eiQ0I-5DAJY4tY8l-78" value="Display Ruang Kuliah Page" style="ellipse;shape=umlControl;whiteSpace=wrap;html=1;" parent="1" vertex="1">
          <mxGeometry x="510" y="-481.89" width="70" height="80" as="geometry" />
        </mxCell>
        <mxCell id="f9h9eiQ0I-5DAJY4tY8l-82" style="edgeStyle=orthogonalEdgeStyle;rounded=0;orthogonalLoop=1;jettySize=auto;html=1;entryX=0.503;entryY=0.036;entryDx=0;entryDy=0;entryPerimeter=0;endArrow=none;endFill=0;" parent="1" source="f9h9eiQ0I-5DAJY4tY8l-76" target="f9h9eiQ0I-5DAJY4tY8l-78" edge="1">
          <mxGeometry relative="1" as="geometry" />
        </mxCell>
        <mxCell id="f9h9eiQ0I-5DAJY4tY8l-83" value="Click Ruang Kuliah menu" style="edgeLabel;html=1;align=center;verticalAlign=middle;resizable=0;points=[];" parent="f9h9eiQ0I-5DAJY4tY8l-82" vertex="1" connectable="0">
          <mxGeometry x="-0.1731" y="-2" relative="1" as="geometry">
            <mxPoint y="-1" as="offset" />
          </mxGeometry>
        </mxCell>
        <mxCell id="f9h9eiQ0I-5DAJY4tY8l-85" style="edgeStyle=orthogonalEdgeStyle;rounded=0;orthogonalLoop=1;jettySize=auto;html=1;endArrow=none;endFill=0;" parent="1" source="f9h9eiQ0I-5DAJY4tY8l-84" edge="1">
          <mxGeometry relative="1" as="geometry">
            <mxPoint x="505" y="-441.89" as="targetPoint" />
          </mxGeometry>
        </mxCell>
        <mxCell id="f9h9eiQ0I-5DAJY4tY8l-84" value="Ruang Kuliah Page" style="shape=umlBoundary;whiteSpace=wrap;html=1;" parent="1" vertex="1">
          <mxGeometry x="355" y="-481.89" width="100" height="80" as="geometry" />
        </mxCell>
        <mxCell id="f9h9eiQ0I-5DAJY4tY8l-92" style="edgeStyle=orthogonalEdgeStyle;rounded=0;orthogonalLoop=1;jettySize=auto;html=1;endArrow=none;endFill=0;" parent="1" source="f9h9eiQ0I-5DAJY4tY8l-87" edge="1">
          <mxGeometry relative="1" as="geometry">
            <mxPoint x="585" y="-271.89" as="targetPoint" />
            <Array as="points">
              <mxPoint x="745" y="-271.89" />
            </Array>
          </mxGeometry>
        </mxCell>
        <mxCell id="f9h9eiQ0I-5DAJY4tY8l-87" value="Database Ruang Kuliah" style="ellipse;shape=umlEntity;whiteSpace=wrap;html=1;" parent="1" vertex="1">
          <mxGeometry x="705" y="-481.89" width="80" height="80" as="geometry" />
        </mxCell>
        <mxCell id="f9h9eiQ0I-5DAJY4tY8l-91" style="edgeStyle=orthogonalEdgeStyle;rounded=0;orthogonalLoop=1;jettySize=auto;html=1;endArrow=none;endFill=0;" parent="1" source="f9h9eiQ0I-5DAJY4tY8l-90" edge="1">
          <mxGeometry relative="1" as="geometry">
            <mxPoint x="545" y="-391.89" as="targetPoint" />
          </mxGeometry>
        </mxCell>
        <mxCell id="KgDqdu3lI9y8hDSoOavW-12" value="Text" style="edgeLabel;html=1;align=center;verticalAlign=middle;resizable=0;points=[];" parent="f9h9eiQ0I-5DAJY4tY8l-91" connectable="0" vertex="1">
          <mxGeometry x="0.2767" relative="1" as="geometry">
            <mxPoint as="offset" />
          </mxGeometry>
        </mxCell>
        <mxCell id="f9h9eiQ0I-5DAJY4tY8l-96" style="edgeStyle=orthogonalEdgeStyle;rounded=0;orthogonalLoop=1;jettySize=auto;html=1;endArrow=none;endFill=0;" parent="1" source="f9h9eiQ0I-5DAJY4tY8l-90" target="f9h9eiQ0I-5DAJY4tY8l-95" edge="1">
          <mxGeometry relative="1" as="geometry" />
        </mxCell>
        <mxCell id="KgDqdu3lI9y8hDSoOavW-7" value="Gedung or Ruang Kelas tersedia" style="edgeLabel;html=1;align=center;verticalAlign=middle;resizable=0;points=[];" parent="f9h9eiQ0I-5DAJY4tY8l-96" connectable="0" vertex="1">
          <mxGeometry x="-0.1067" relative="1" as="geometry">
            <mxPoint as="offset" />
          </mxGeometry>
        </mxCell>
        <mxCell id="KgDqdu3lI9y8hDSoOavW-10" style="edgeStyle=orthogonalEdgeStyle;rounded=0;orthogonalLoop=1;jettySize=auto;html=1;endArrow=none;endFill=0;" parent="1" source="f9h9eiQ0I-5DAJY4tY8l-90" edge="1">
          <mxGeometry relative="1" as="geometry">
            <mxPoint x="385.00000000000045" y="-281.89" as="targetPoint" />
          </mxGeometry>
        </mxCell>
        <mxCell id="f9h9eiQ0I-5DAJY4tY8l-90" value="Input nama gedung or nama ruang kelas" style="ellipse;shape=umlControl;whiteSpace=wrap;html=1;" parent="1" vertex="1">
          <mxGeometry x="510" y="-321.89" width="70" height="80" as="geometry" />
        </mxCell>
        <mxCell id="f9h9eiQ0I-5DAJY4tY8l-94" style="edgeStyle=orthogonalEdgeStyle;rounded=0;orthogonalLoop=1;jettySize=auto;html=1;entryX=1.04;entryY=0.508;entryDx=0;entryDy=0;entryPerimeter=0;endArrow=none;endFill=0;" parent="1" source="f9h9eiQ0I-5DAJY4tY8l-90" edge="1">
          <mxGeometry relative="1" as="geometry">
            <mxPoint x="398.99999999999955" y="-281.24999999999966" as="targetPoint" />
          </mxGeometry>
        </mxCell>
        <mxCell id="KgDqdu3lI9y8hDSoOavW-8" value="Gedung or Ruang Kelas&amp;nbsp;&lt;div&gt;tdk Tersedia&lt;/div&gt;" style="edgeLabel;html=1;align=center;verticalAlign=middle;resizable=0;points=[];" parent="f9h9eiQ0I-5DAJY4tY8l-94" connectable="0" vertex="1">
          <mxGeometry x="0.1583" y="-1" relative="1" as="geometry">
            <mxPoint x="-11" as="offset" />
          </mxGeometry>
        </mxCell>
        <mxCell id="f9h9eiQ0I-5DAJY4tY8l-95" value="Isi kuota kelas" style="ellipse;shape=umlControl;whiteSpace=wrap;html=1;" parent="1" vertex="1">
          <mxGeometry x="510" y="-141.89" width="70" height="80" as="geometry" />
        </mxCell>
        <mxCell id="f9h9eiQ0I-5DAJY4tY8l-98" value="&lt;font style=&quot;font-size: 32px;&quot;&gt;Bagian Akademik mengatur ketersediaan ruang kelas dan kuota&lt;/font&gt;" style="text;html=1;align=center;verticalAlign=middle;resizable=0;points=[];autosize=1;strokeColor=none;fillColor=none;" parent="1" vertex="1">
          <mxGeometry x="20" y="-783.89" width="930" height="50" as="geometry" />
        </mxCell>
        <mxCell id="f9h9eiQ0I-5DAJY4tY8l-99" value="Kaprodi" style="shape=umlActor;verticalLabelPosition=bottom;verticalAlign=top;html=1;" parent="1" vertex="1">
          <mxGeometry x="610" y="630" width="30" height="60" as="geometry" />
        </mxCell>
        <mxCell id="f9h9eiQ0I-5DAJY4tY8l-102" value="&lt;font style=&quot;font-size: 32px;&quot;&gt;Kaprodi menyusun jadwal kuliah berdasarkan data yang tersedia&lt;/font&gt;" style="text;html=1;align=center;verticalAlign=middle;resizable=0;points=[];autosize=1;strokeColor=none;fillColor=none;" parent="1" vertex="1">
          <mxGeometry x="540" y="520" width="940" height="50" as="geometry" />
        </mxCell>
        <mxCell id="f9h9eiQ0I-5DAJY4tY8l-103" value="dashboard&lt;div&gt;Page&lt;/div&gt;" style="shape=umlBoundary;whiteSpace=wrap;html=1;" parent="1" vertex="1">
          <mxGeometry x="800" y="620" width="100" height="80" as="geometry" />
        </mxCell>
        <mxCell id="f9h9eiQ0I-5DAJY4tY8l-104" style="edgeStyle=orthogonalEdgeStyle;rounded=0;orthogonalLoop=1;jettySize=auto;html=1;entryX=-0.033;entryY=0.505;entryDx=0;entryDy=0;entryPerimeter=0;endArrow=none;endFill=0;" parent="1" source="f9h9eiQ0I-5DAJY4tY8l-99" target="f9h9eiQ0I-5DAJY4tY8l-103" edge="1">
          <mxGeometry relative="1" as="geometry" />
        </mxCell>
        <mxCell id="f9h9eiQ0I-5DAJY4tY8l-106" style="edgeStyle=orthogonalEdgeStyle;rounded=0;orthogonalLoop=1;jettySize=auto;html=1;endArrow=none;endFill=0;" parent="1" source="f9h9eiQ0I-5DAJY4tY8l-105" edge="1">
          <mxGeometry relative="1" as="geometry">
            <mxPoint x="920.0000000000005" y="660" as="targetPoint" />
          </mxGeometry>
        </mxCell>
        <mxCell id="f9h9eiQ0I-5DAJY4tY8l-105" value="Display&lt;div&gt;Dashboard&lt;/div&gt;&lt;div&gt;Page&lt;/div&gt;" style="ellipse;shape=umlControl;whiteSpace=wrap;html=1;" parent="1" vertex="1">
          <mxGeometry x="1060" y="620" width="70" height="80" as="geometry" />
        </mxCell>
        <mxCell id="f9h9eiQ0I-5DAJY4tY8l-108" style="edgeStyle=orthogonalEdgeStyle;rounded=0;orthogonalLoop=1;jettySize=auto;html=1;endArrow=none;endFill=0;" parent="1" source="f9h9eiQ0I-5DAJY4tY8l-107" edge="1">
          <mxGeometry relative="1" as="geometry">
            <mxPoint x="1095.0000000000005" y="710" as="targetPoint" />
          </mxGeometry>
        </mxCell>
        <mxCell id="f9h9eiQ0I-5DAJY4tY8l-109" value="Click Jadwal Kuliah Menu" style="edgeLabel;html=1;align=center;verticalAlign=middle;resizable=0;points=[];" parent="f9h9eiQ0I-5DAJY4tY8l-108" vertex="1" connectable="0">
          <mxGeometry x="-0.0237" y="3" relative="1" as="geometry">
            <mxPoint x="-3" y="2" as="offset" />
          </mxGeometry>
        </mxCell>
        <mxCell id="f9h9eiQ0I-5DAJY4tY8l-111" style="edgeStyle=orthogonalEdgeStyle;rounded=0;orthogonalLoop=1;jettySize=auto;html=1;endArrow=none;endFill=0;" parent="1" source="f9h9eiQ0I-5DAJY4tY8l-107" edge="1">
          <mxGeometry relative="1" as="geometry">
            <mxPoint x="910.0000000000005" y="820" as="targetPoint" />
          </mxGeometry>
        </mxCell>
        <mxCell id="f9h9eiQ0I-5DAJY4tY8l-107" value="Display&lt;div&gt;Daftar&lt;br&gt;&lt;div&gt;Jadwal&amp;nbsp;&lt;/div&gt;&lt;div&gt;Kuliah Page&lt;/div&gt;&lt;/div&gt;" style="ellipse;shape=umlControl;whiteSpace=wrap;html=1;" parent="1" vertex="1">
          <mxGeometry x="1060" y="780" width="70" height="80" as="geometry" />
        </mxCell>
        <mxCell id="f9h9eiQ0I-5DAJY4tY8l-110" value="&lt;div&gt;Daftar&lt;/div&gt;Jadwal Kuliah&lt;div&gt;Page&lt;/div&gt;" style="shape=umlBoundary;whiteSpace=wrap;html=1;" parent="1" vertex="1">
          <mxGeometry x="800" y="780" width="100" height="80" as="geometry" />
        </mxCell>
        <mxCell id="f9h9eiQ0I-5DAJY4tY8l-113" style="edgeStyle=orthogonalEdgeStyle;rounded=0;orthogonalLoop=1;jettySize=auto;html=1;endArrow=none;endFill=0;" parent="1" source="f9h9eiQ0I-5DAJY4tY8l-112" edge="1">
          <mxGeometry relative="1" as="geometry">
            <mxPoint x="1140" y="820" as="targetPoint" />
          </mxGeometry>
        </mxCell>
        <mxCell id="f9h9eiQ0I-5DAJY4tY8l-112" value="Database&lt;div&gt;Mata Kuliah&lt;/div&gt;" style="ellipse;shape=umlEntity;whiteSpace=wrap;html=1;" parent="1" vertex="1">
          <mxGeometry x="1290" y="780" width="80" height="80" as="geometry" />
        </mxCell>
        <mxCell id="f9h9eiQ0I-5DAJY4tY8l-138" style="edgeStyle=orthogonalEdgeStyle;rounded=0;orthogonalLoop=1;jettySize=auto;html=1;endArrow=none;endFill=0;" parent="1" source="f9h9eiQ0I-5DAJY4tY8l-115" target="f9h9eiQ0I-5DAJY4tY8l-137" edge="1">
          <mxGeometry relative="1" as="geometry" />
        </mxCell>
        <mxCell id="f9h9eiQ0I-5DAJY4tY8l-115" value="Display Pengaturan&lt;div&gt;Mata kuliah&lt;/div&gt;" style="ellipse;shape=umlControl;whiteSpace=wrap;html=1;" parent="1" vertex="1">
          <mxGeometry x="1060" y="940" width="70" height="80" as="geometry" />
        </mxCell>
        <mxCell id="f9h9eiQ0I-5DAJY4tY8l-116" style="edgeStyle=orthogonalEdgeStyle;rounded=0;orthogonalLoop=1;jettySize=auto;html=1;entryX=0.489;entryY=0.99;entryDx=0;entryDy=0;entryPerimeter=0;endArrow=none;endFill=0;" parent="1" source="f9h9eiQ0I-5DAJY4tY8l-115" target="f9h9eiQ0I-5DAJY4tY8l-107" edge="1">
          <mxGeometry relative="1" as="geometry" />
        </mxCell>
        <mxCell id="f9h9eiQ0I-5DAJY4tY8l-117" value="Click Mata Kuliah yang mau diatur" style="edgeLabel;html=1;align=center;verticalAlign=middle;resizable=0;points=[];" parent="f9h9eiQ0I-5DAJY4tY8l-116" vertex="1" connectable="0">
          <mxGeometry x="-0.2418" y="3" relative="1" as="geometry">
            <mxPoint as="offset" />
          </mxGeometry>
        </mxCell>
        <mxCell id="f9h9eiQ0I-5DAJY4tY8l-118" value="Pengaturan&amp;nbsp;&lt;div&gt;Mata Kuliah&lt;/div&gt;&lt;div&gt;Page&lt;/div&gt;" style="shape=umlBoundary;whiteSpace=wrap;html=1;" parent="1" vertex="1">
          <mxGeometry x="1275" y="940" width="100" height="80" as="geometry" />
        </mxCell>
        <mxCell id="f9h9eiQ0I-5DAJY4tY8l-119" style="edgeStyle=orthogonalEdgeStyle;rounded=0;orthogonalLoop=1;jettySize=auto;html=1;endArrow=none;endFill=0;" parent="1" source="f9h9eiQ0I-5DAJY4tY8l-115" edge="1">
          <mxGeometry relative="1" as="geometry">
            <mxPoint x="1270" y="980" as="targetPoint" />
          </mxGeometry>
        </mxCell>
        <mxCell id="f9h9eiQ0I-5DAJY4tY8l-120" value="Database&lt;div&gt;Jadwal Kuliah&lt;/div&gt;" style="ellipse;shape=umlEntity;whiteSpace=wrap;html=1;" parent="1" vertex="1">
          <mxGeometry x="820" y="1140" width="80" height="80" as="geometry" />
        </mxCell>
        <mxCell id="f9h9eiQ0I-5DAJY4tY8l-125" style="edgeStyle=orthogonalEdgeStyle;rounded=0;orthogonalLoop=1;jettySize=auto;html=1;endArrow=none;endFill=0;" parent="1" source="f9h9eiQ0I-5DAJY4tY8l-122" edge="1">
          <mxGeometry relative="1" as="geometry">
            <mxPoint x="1095" y="1280" as="targetPoint" />
          </mxGeometry>
        </mxCell>
        <mxCell id="f9h9eiQ0I-5DAJY4tY8l-122" value="Pengaturan&lt;div&gt;Semester mata kuliah&lt;/div&gt;" style="ellipse;shape=umlControl;whiteSpace=wrap;html=1;" parent="1" vertex="1">
          <mxGeometry x="1060" y="1110" width="70" height="80" as="geometry" />
        </mxCell>
        <mxCell id="f9h9eiQ0I-5DAJY4tY8l-129" style="edgeStyle=orthogonalEdgeStyle;rounded=0;orthogonalLoop=1;jettySize=auto;html=1;entryX=1.069;entryY=0.55;entryDx=0;entryDy=0;entryPerimeter=0;endArrow=none;endFill=0;" parent="1" source="f9h9eiQ0I-5DAJY4tY8l-112" target="f9h9eiQ0I-5DAJY4tY8l-122" edge="1">
          <mxGeometry relative="1" as="geometry">
            <Array as="points">
              <mxPoint x="1450" y="820" />
              <mxPoint x="1450" y="1154" />
            </Array>
          </mxGeometry>
        </mxCell>
        <mxCell id="f9h9eiQ0I-5DAJY4tY8l-134" style="edgeStyle=orthogonalEdgeStyle;rounded=0;orthogonalLoop=1;jettySize=auto;html=1;endArrow=none;endFill=0;" parent="1" source="f9h9eiQ0I-5DAJY4tY8l-130" target="f9h9eiQ0I-5DAJY4tY8l-133" edge="1">
          <mxGeometry relative="1" as="geometry" />
        </mxCell>
        <mxCell id="f9h9eiQ0I-5DAJY4tY8l-130" value="Pengaturan&amp;nbsp;&lt;div&gt;Dosen&lt;/div&gt;&lt;div&gt;Pengampu&lt;/div&gt;" style="ellipse;shape=umlControl;whiteSpace=wrap;html=1;" parent="1" vertex="1">
          <mxGeometry x="1060" y="1270" width="70" height="80" as="geometry" />
        </mxCell>
        <mxCell id="f9h9eiQ0I-5DAJY4tY8l-131" value="Database&lt;div&gt;Dosen&lt;/div&gt;" style="ellipse;shape=umlEntity;whiteSpace=wrap;html=1;" parent="1" vertex="1">
          <mxGeometry x="810" y="1270" width="80" height="80" as="geometry" />
        </mxCell>
        <mxCell id="f9h9eiQ0I-5DAJY4tY8l-132" style="edgeStyle=orthogonalEdgeStyle;rounded=0;orthogonalLoop=1;jettySize=auto;html=1;entryX=0;entryY=0.5;entryDx=0;entryDy=0;entryPerimeter=0;endArrow=none;endFill=0;" parent="1" source="f9h9eiQ0I-5DAJY4tY8l-131" target="f9h9eiQ0I-5DAJY4tY8l-130" edge="1">
          <mxGeometry relative="1" as="geometry" />
        </mxCell>
        <mxCell id="f9h9eiQ0I-5DAJY4tY8l-141" style="edgeStyle=orthogonalEdgeStyle;rounded=0;orthogonalLoop=1;jettySize=auto;html=1;endArrow=none;endFill=0;" parent="1" source="f9h9eiQ0I-5DAJY4tY8l-133" target="f9h9eiQ0I-5DAJY4tY8l-140" edge="1">
          <mxGeometry relative="1" as="geometry" />
        </mxCell>
        <mxCell id="f9h9eiQ0I-5DAJY4tY8l-133" value="&lt;font style=&quot;font-size: 10px;&quot;&gt;Pengaturan&lt;/font&gt;&lt;div style=&quot;font-size: 10px;&quot;&gt;&lt;font style=&quot;font-size: 10px;&quot;&gt;Ruang Kelas&lt;/font&gt;&lt;/div&gt;&lt;div style=&quot;font-size: 10px;&quot;&gt;&lt;font style=&quot;font-size: 10px;&quot;&gt;Mata kuliah&lt;/font&gt;&lt;/div&gt;" style="ellipse;shape=umlControl;whiteSpace=wrap;html=1;" parent="1" vertex="1">
          <mxGeometry x="1060" y="1450" width="70" height="80" as="geometry" />
        </mxCell>
        <mxCell id="f9h9eiQ0I-5DAJY4tY8l-136" style="edgeStyle=orthogonalEdgeStyle;rounded=0;orthogonalLoop=1;jettySize=auto;html=1;endArrow=none;endFill=0;" parent="1" source="f9h9eiQ0I-5DAJY4tY8l-135" target="f9h9eiQ0I-5DAJY4tY8l-133" edge="1">
          <mxGeometry relative="1" as="geometry" />
        </mxCell>
        <mxCell id="f9h9eiQ0I-5DAJY4tY8l-135" value="Database&lt;div&gt;Ruang Kelas&lt;/div&gt;" style="ellipse;shape=umlEntity;whiteSpace=wrap;html=1;" parent="1" vertex="1">
          <mxGeometry x="810" y="1450" width="80" height="80" as="geometry" />
        </mxCell>
        <mxCell id="f9h9eiQ0I-5DAJY4tY8l-146" style="edgeStyle=orthogonalEdgeStyle;rounded=0;orthogonalLoop=1;jettySize=auto;html=1;endArrow=none;endFill=0;" parent="1" source="f9h9eiQ0I-5DAJY4tY8l-137" edge="1">
          <mxGeometry relative="1" as="geometry">
            <mxPoint x="620" y="979.9999999999995" as="targetPoint" />
          </mxGeometry>
        </mxCell>
        <mxCell id="f9h9eiQ0I-5DAJY4tY8l-137" value="Pengaturan Jadwal Kuliah" style="ellipse;shape=umlControl;whiteSpace=wrap;html=1;" parent="1" vertex="1">
          <mxGeometry x="830" y="940" width="70" height="80" as="geometry" />
        </mxCell>
        <mxCell id="f9h9eiQ0I-5DAJY4tY8l-139" style="edgeStyle=orthogonalEdgeStyle;rounded=0;orthogonalLoop=1;jettySize=auto;html=1;entryX=0.5;entryY=0.061;entryDx=0;entryDy=0;entryPerimeter=0;endArrow=none;endFill=0;" parent="1" source="f9h9eiQ0I-5DAJY4tY8l-115" target="f9h9eiQ0I-5DAJY4tY8l-122" edge="1">
          <mxGeometry relative="1" as="geometry" />
        </mxCell>
        <mxCell id="f9h9eiQ0I-5DAJY4tY8l-142" style="edgeStyle=orthogonalEdgeStyle;rounded=0;orthogonalLoop=1;jettySize=auto;html=1;endArrow=none;endFill=0;" parent="1" source="f9h9eiQ0I-5DAJY4tY8l-140" edge="1">
          <mxGeometry relative="1" as="geometry">
            <mxPoint x="850" y="1540" as="targetPoint" />
          </mxGeometry>
        </mxCell>
        <mxCell id="f9h9eiQ0I-5DAJY4tY8l-143" style="edgeStyle=orthogonalEdgeStyle;rounded=0;orthogonalLoop=1;jettySize=auto;html=1;entryX=0;entryY=0.5;entryDx=0;entryDy=0;endArrow=none;endFill=0;" parent="1" source="f9h9eiQ0I-5DAJY4tY8l-140" target="f9h9eiQ0I-5DAJY4tY8l-131" edge="1">
          <mxGeometry relative="1" as="geometry">
            <Array as="points">
              <mxPoint x="1095" y="1720" />
              <mxPoint x="790" y="1720" />
              <mxPoint x="790" y="1310" />
            </Array>
          </mxGeometry>
        </mxCell>
        <mxCell id="f9h9eiQ0I-5DAJY4tY8l-140" value="Konfirmasi&amp;nbsp;" style="ellipse;shape=umlControl;whiteSpace=wrap;html=1;" parent="1" vertex="1">
          <mxGeometry x="1060" y="1620" width="70" height="80" as="geometry" />
        </mxCell>
        <mxCell id="f9h9eiQ0I-5DAJY4tY8l-144" style="edgeStyle=orthogonalEdgeStyle;rounded=0;orthogonalLoop=1;jettySize=auto;html=1;entryX=0.429;entryY=1;entryDx=0;entryDy=0;entryPerimeter=0;endArrow=none;endFill=0;" parent="1" source="f9h9eiQ0I-5DAJY4tY8l-120" target="f9h9eiQ0I-5DAJY4tY8l-137" edge="1">
          <mxGeometry relative="1" as="geometry" />
        </mxCell>
        <mxCell id="f9h9eiQ0I-5DAJY4tY8l-145" value="Konfirmasi" style="ellipse;shape=umlControl;whiteSpace=wrap;html=1;" parent="1" vertex="1">
          <mxGeometry x="550" y="940" width="70" height="80" as="geometry" />
        </mxCell>
        <mxCell id="f9h9eiQ0I-5DAJY4tY8l-147" style="edgeStyle=orthogonalEdgeStyle;rounded=0;orthogonalLoop=1;jettySize=auto;html=1;entryX=0;entryY=0.625;entryDx=0;entryDy=0;entryPerimeter=0;endArrow=none;endFill=0;" parent="1" source="f9h9eiQ0I-5DAJY4tY8l-145" target="f9h9eiQ0I-5DAJY4tY8l-120" edge="1">
          <mxGeometry relative="1" as="geometry">
            <Array as="points">
              <mxPoint x="580" y="1190" />
            </Array>
          </mxGeometry>
        </mxCell>
        <mxCell id="f9h9eiQ0I-5DAJY4tY8l-149" value="&lt;font style=&quot;font-size: 32px;&quot;&gt;Pembimbing Akademik Melihat dan Mengesahkan IRS Mahasiswa&lt;/font&gt;" style="text;html=1;align=center;verticalAlign=middle;resizable=0;points=[];autosize=1;strokeColor=none;fillColor=none;" parent="1" vertex="1">
          <mxGeometry x="1730" y="-1947.5" width="960" height="50" as="geometry" />
        </mxCell>
        <mxCell id="f9h9eiQ0I-5DAJY4tY8l-150" value="Actor" style="shape=umlActor;verticalLabelPosition=bottom;verticalAlign=top;html=1;" parent="1" vertex="1">
          <mxGeometry x="1760" y="-1855.5" width="30" height="60" as="geometry" />
        </mxCell>
        <mxCell id="f9h9eiQ0I-5DAJY4tY8l-151" value="Dashboard&lt;div&gt;Page&lt;/div&gt;" style="shape=umlBoundary;whiteSpace=wrap;html=1;" parent="1" vertex="1">
          <mxGeometry x="2060" y="-1865.5" width="100" height="80" as="geometry" />
        </mxCell>
        <mxCell id="f9h9eiQ0I-5DAJY4tY8l-152" style="edgeStyle=orthogonalEdgeStyle;rounded=0;orthogonalLoop=1;jettySize=auto;html=1;entryX=0.131;entryY=0.49;entryDx=0;entryDy=0;entryPerimeter=0;endArrow=none;endFill=0;" parent="1" source="f9h9eiQ0I-5DAJY4tY8l-150" target="f9h9eiQ0I-5DAJY4tY8l-151" edge="1">
          <mxGeometry relative="1" as="geometry" />
        </mxCell>
        <mxCell id="f9h9eiQ0I-5DAJY4tY8l-154" style="edgeStyle=orthogonalEdgeStyle;rounded=0;orthogonalLoop=1;jettySize=auto;html=1;endArrow=none;endFill=0;" parent="1" source="f9h9eiQ0I-5DAJY4tY8l-153" edge="1">
          <mxGeometry relative="1" as="geometry">
            <mxPoint x="2170" y="-1825.5" as="targetPoint" />
          </mxGeometry>
        </mxCell>
        <mxCell id="f9h9eiQ0I-5DAJY4tY8l-153" value="Display&lt;div&gt;Dashboard&lt;/div&gt;&lt;div&gt;Page&lt;/div&gt;" style="ellipse;shape=umlControl;whiteSpace=wrap;html=1;" parent="1" vertex="1">
          <mxGeometry x="2330" y="-1865.5" width="70" height="80" as="geometry" />
        </mxCell>
        <mxCell id="f9h9eiQ0I-5DAJY4tY8l-163" style="edgeStyle=orthogonalEdgeStyle;rounded=0;orthogonalLoop=1;jettySize=auto;html=1;endArrow=none;endFill=0;" parent="1" source="f9h9eiQ0I-5DAJY4tY8l-155" edge="1">
          <mxGeometry relative="1" as="geometry">
            <mxPoint x="2365" y="-1485.5" as="targetPoint" />
          </mxGeometry>
        </mxCell>
        <mxCell id="f9h9eiQ0I-5DAJY4tY8l-155" value="Display&lt;div&gt;Mahasiswa&lt;br&gt;perwalian&lt;/div&gt;&lt;div&gt;page&lt;/div&gt;" style="ellipse;shape=umlControl;whiteSpace=wrap;html=1;" parent="1" vertex="1">
          <mxGeometry x="2330" y="-1675.5" width="70" height="80" as="geometry" />
        </mxCell>
        <mxCell id="f9h9eiQ0I-5DAJY4tY8l-156" style="edgeStyle=orthogonalEdgeStyle;rounded=0;orthogonalLoop=1;jettySize=auto;html=1;entryX=0.483;entryY=0.99;entryDx=0;entryDy=0;entryPerimeter=0;endArrow=none;endFill=0;" parent="1" source="f9h9eiQ0I-5DAJY4tY8l-155" target="f9h9eiQ0I-5DAJY4tY8l-153" edge="1">
          <mxGeometry relative="1" as="geometry" />
        </mxCell>
        <mxCell id="f9h9eiQ0I-5DAJY4tY8l-157" value="Click Mahasiswa Perwalian Menu" style="edgeLabel;html=1;align=center;verticalAlign=middle;resizable=0;points=[];" parent="f9h9eiQ0I-5DAJY4tY8l-156" vertex="1" connectable="0">
          <mxGeometry x="-0.125" y="2" relative="1" as="geometry">
            <mxPoint as="offset" />
          </mxGeometry>
        </mxCell>
        <mxCell id="f9h9eiQ0I-5DAJY4tY8l-159" style="edgeStyle=orthogonalEdgeStyle;rounded=0;orthogonalLoop=1;jettySize=auto;html=1;endArrow=none;endFill=0;" parent="1" source="f9h9eiQ0I-5DAJY4tY8l-158" edge="1">
          <mxGeometry relative="1" as="geometry">
            <mxPoint x="2320" y="-1635.5" as="targetPoint" />
          </mxGeometry>
        </mxCell>
        <mxCell id="f9h9eiQ0I-5DAJY4tY8l-158" value="Mahasiswa&lt;div&gt;Perwalian&lt;br&gt;Page&lt;/div&gt;" style="shape=umlBoundary;whiteSpace=wrap;html=1;" parent="1" vertex="1">
          <mxGeometry x="2060" y="-1675.5" width="100" height="80" as="geometry" />
        </mxCell>
        <mxCell id="f9h9eiQ0I-5DAJY4tY8l-161" style="edgeStyle=orthogonalEdgeStyle;rounded=0;orthogonalLoop=1;jettySize=auto;html=1;strokeColor=none;endArrow=none;endFill=0;" parent="1" source="f9h9eiQ0I-5DAJY4tY8l-160" edge="1">
          <mxGeometry relative="1" as="geometry">
            <mxPoint x="2410" y="-1635.5" as="targetPoint" />
          </mxGeometry>
        </mxCell>
        <mxCell id="KgDqdu3lI9y8hDSoOavW-1" style="edgeStyle=orthogonalEdgeStyle;rounded=0;orthogonalLoop=1;jettySize=auto;html=1;endArrow=none;endFill=0;" parent="1" source="f9h9eiQ0I-5DAJY4tY8l-160" target="f9h9eiQ0I-5DAJY4tY8l-155" edge="1">
          <mxGeometry relative="1" as="geometry" />
        </mxCell>
        <mxCell id="f9h9eiQ0I-5DAJY4tY8l-160" value="Database&amp;nbsp;&lt;div&gt;Mahasiswa&lt;/div&gt;" style="ellipse;shape=umlEntity;whiteSpace=wrap;html=1;" parent="1" vertex="1">
          <mxGeometry x="2590" y="-1675.5" width="80" height="80" as="geometry" />
        </mxCell>
        <mxCell id="f9h9eiQ0I-5DAJY4tY8l-165" style="edgeStyle=orthogonalEdgeStyle;rounded=0;orthogonalLoop=1;jettySize=auto;html=1;endArrow=none;endFill=0;" parent="1" source="f9h9eiQ0I-5DAJY4tY8l-162" target="f9h9eiQ0I-5DAJY4tY8l-164" edge="1">
          <mxGeometry relative="1" as="geometry" />
        </mxCell>
        <mxCell id="KgDqdu3lI9y8hDSoOavW-15" value="Nama Mahasiswa Tersedia" style="edgeLabel;html=1;align=center;verticalAlign=middle;resizable=0;points=[];" parent="f9h9eiQ0I-5DAJY4tY8l-165" connectable="0" vertex="1">
          <mxGeometry x="-0.0171" y="-1" relative="1" as="geometry">
            <mxPoint as="offset" />
          </mxGeometry>
        </mxCell>
        <mxCell id="f9h9eiQ0I-5DAJY4tY8l-162" value="Input&amp;nbsp;&lt;div&gt;Nama&lt;/div&gt;&lt;div&gt;Mahasiswa&lt;/div&gt;" style="ellipse;shape=umlControl;whiteSpace=wrap;html=1;" parent="1" vertex="1">
          <mxGeometry x="2330" y="-1475.5" width="70" height="80" as="geometry" />
        </mxCell>
        <mxCell id="f9h9eiQ0I-5DAJY4tY8l-167" style="edgeStyle=orthogonalEdgeStyle;rounded=0;orthogonalLoop=1;jettySize=auto;html=1;endArrow=none;endFill=0;" parent="1" source="f9h9eiQ0I-5DAJY4tY8l-164" edge="1">
          <mxGeometry relative="1" as="geometry">
            <mxPoint x="2590" y="-1245.5" as="targetPoint" />
          </mxGeometry>
        </mxCell>
        <mxCell id="f9h9eiQ0I-5DAJY4tY8l-173" style="edgeStyle=orthogonalEdgeStyle;rounded=0;orthogonalLoop=1;jettySize=auto;html=1;entryX=1;entryY=0.5;entryDx=0;entryDy=0;endArrow=none;endFill=0;" parent="1" source="f9h9eiQ0I-5DAJY4tY8l-164" target="f9h9eiQ0I-5DAJY4tY8l-168" edge="1">
          <mxGeometry relative="1" as="geometry" />
        </mxCell>
        <mxCell id="f9h9eiQ0I-5DAJY4tY8l-164" value="Display IRS Mahasiswa" style="ellipse;shape=umlControl;whiteSpace=wrap;html=1;" parent="1" vertex="1">
          <mxGeometry x="2330" y="-1285.5" width="70" height="80" as="geometry" />
        </mxCell>
        <mxCell id="f9h9eiQ0I-5DAJY4tY8l-172" style="edgeStyle=orthogonalEdgeStyle;rounded=0;orthogonalLoop=1;jettySize=auto;html=1;endArrow=none;endFill=0;" parent="1" source="f9h9eiQ0I-5DAJY4tY8l-166" edge="1">
          <mxGeometry relative="1" as="geometry">
            <mxPoint x="2080" y="-1195.5" as="targetPoint" />
            <Array as="points">
              <mxPoint x="2630" y="-1105.5" />
              <mxPoint x="2081" y="-1105.5" />
            </Array>
          </mxGeometry>
        </mxCell>
        <mxCell id="f9h9eiQ0I-5DAJY4tY8l-166" value="Setujui&lt;div&gt;IRS&lt;/div&gt;&lt;div&gt;Mahasiswa&lt;/div&gt;" style="ellipse;shape=umlControl;whiteSpace=wrap;html=1;" parent="1" vertex="1">
          <mxGeometry x="2595" y="-1285.5" width="70" height="80" as="geometry" />
        </mxCell>
        <mxCell id="f9h9eiQ0I-5DAJY4tY8l-168" value="Database&lt;div&gt;IRS&lt;/div&gt;" style="ellipse;shape=umlEntity;whiteSpace=wrap;html=1;" parent="1" vertex="1">
          <mxGeometry x="2040" y="-1285.5" width="80" height="80" as="geometry" />
        </mxCell>
        <mxCell id="f9h9eiQ0I-5DAJY4tY8l-169" style="edgeStyle=orthogonalEdgeStyle;rounded=0;orthogonalLoop=1;jettySize=auto;html=1;entryX=0.986;entryY=0.536;entryDx=0;entryDy=0;entryPerimeter=0;endArrow=none;endFill=0;" parent="1" edge="1">
          <mxGeometry relative="1" as="geometry">
            <mxPoint x="2630" y="-1575.5" as="sourcePoint" />
            <mxPoint x="2400.0000000000005" y="-1432.6200000000001" as="targetPoint" />
            <Array as="points">
              <mxPoint x="2630" y="-1595.5" />
              <mxPoint x="2630" y="-1432.5" />
            </Array>
          </mxGeometry>
        </mxCell>
        <mxCell id="f9h9eiQ0I-5DAJY4tY8l-174" value="&lt;font style=&quot;font-size: 32px;&quot;&gt;Dekan Menyetujui Ruang Kuliah untuk setiap program studi yang sudah diinputkan oleh bagian akademik&lt;/font&gt;" style="text;html=1;align=center;verticalAlign=middle;resizable=0;points=[];autosize=1;strokeColor=none;fillColor=none;" parent="1" vertex="1">
          <mxGeometry x="2490" y="-442" width="1520" height="50" as="geometry" />
        </mxCell>
        <mxCell id="f9h9eiQ0I-5DAJY4tY8l-180" style="edgeStyle=orthogonalEdgeStyle;rounded=0;orthogonalLoop=1;jettySize=auto;html=1;" parent="1" source="f9h9eiQ0I-5DAJY4tY8l-178" target="f9h9eiQ0I-5DAJY4tY8l-179" edge="1">
          <mxGeometry relative="1" as="geometry" />
        </mxCell>
        <mxCell id="f9h9eiQ0I-5DAJY4tY8l-178" value="Dekan" style="shape=umlActor;verticalLabelPosition=bottom;verticalAlign=top;html=1;" parent="1" vertex="1">
          <mxGeometry x="2895" y="-290" width="30" height="60" as="geometry" />
        </mxCell>
        <mxCell id="f9h9eiQ0I-5DAJY4tY8l-182" style="edgeStyle=orthogonalEdgeStyle;rounded=0;orthogonalLoop=1;jettySize=auto;html=1;" parent="1" source="f9h9eiQ0I-5DAJY4tY8l-179" target="f9h9eiQ0I-5DAJY4tY8l-181" edge="1">
          <mxGeometry relative="1" as="geometry" />
        </mxCell>
        <mxCell id="f9h9eiQ0I-5DAJY4tY8l-179" value="Dashboard&lt;div&gt;Page&lt;/div&gt;" style="shape=umlBoundary;whiteSpace=wrap;html=1;" parent="1" vertex="1">
          <mxGeometry x="3135" y="-300" width="100" height="80" as="geometry" />
        </mxCell>
        <mxCell id="f9h9eiQ0I-5DAJY4tY8l-185" style="edgeStyle=orthogonalEdgeStyle;rounded=0;orthogonalLoop=1;jettySize=auto;html=1;" parent="1" source="f9h9eiQ0I-5DAJY4tY8l-181" target="f9h9eiQ0I-5DAJY4tY8l-183" edge="1">
          <mxGeometry relative="1" as="geometry" />
        </mxCell>
        <mxCell id="f9h9eiQ0I-5DAJY4tY8l-186" value="Click Ruang Kuliah Menu" style="edgeLabel;html=1;align=center;verticalAlign=middle;resizable=0;points=[];" parent="f9h9eiQ0I-5DAJY4tY8l-185" vertex="1" connectable="0">
          <mxGeometry x="0.0667" y="2" relative="1" as="geometry">
            <mxPoint as="offset" />
          </mxGeometry>
        </mxCell>
        <mxCell id="f9h9eiQ0I-5DAJY4tY8l-181" value="Display&lt;div&gt;Dashboard&lt;/div&gt;" style="ellipse;shape=umlControl;whiteSpace=wrap;html=1;" parent="1" vertex="1">
          <mxGeometry x="3485" y="-300" width="70" height="80" as="geometry" />
        </mxCell>
        <mxCell id="f9h9eiQ0I-5DAJY4tY8l-183" value="Display Ruang Kuliah Page" style="ellipse;shape=umlControl;whiteSpace=wrap;html=1;" parent="1" vertex="1">
          <mxGeometry x="3485" y="-100" width="70" height="80" as="geometry" />
        </mxCell>
        <mxCell id="f9h9eiQ0I-5DAJY4tY8l-187" value="Ruang Kuliah&lt;div&gt;Page&lt;/div&gt;" style="shape=umlBoundary;whiteSpace=wrap;html=1;" parent="1" vertex="1">
          <mxGeometry x="3135" y="-100" width="100" height="80" as="geometry" />
        </mxCell>
        <mxCell id="f9h9eiQ0I-5DAJY4tY8l-189" style="edgeStyle=orthogonalEdgeStyle;rounded=0;orthogonalLoop=1;jettySize=auto;html=1;entryX=1.013;entryY=0.5;entryDx=0;entryDy=0;entryPerimeter=0;" parent="1" source="f9h9eiQ0I-5DAJY4tY8l-183" target="f9h9eiQ0I-5DAJY4tY8l-187" edge="1">
          <mxGeometry relative="1" as="geometry" />
        </mxCell>
        <mxCell id="f9h9eiQ0I-5DAJY4tY8l-190" value="&lt;div&gt;Database&lt;/div&gt;Ruang Kelas" style="ellipse;shape=umlEntity;whiteSpace=wrap;html=1;" parent="1" vertex="1">
          <mxGeometry x="3765" y="-100" width="80" height="80" as="geometry" />
        </mxCell>
        <mxCell id="f9h9eiQ0I-5DAJY4tY8l-191" style="edgeStyle=orthogonalEdgeStyle;rounded=0;orthogonalLoop=1;jettySize=auto;html=1;entryX=1;entryY=0.5;entryDx=0;entryDy=0;entryPerimeter=0;" parent="1" source="f9h9eiQ0I-5DAJY4tY8l-190" target="f9h9eiQ0I-5DAJY4tY8l-183" edge="1">
          <mxGeometry relative="1" as="geometry" />
        </mxCell>
        <mxCell id="f9h9eiQ0I-5DAJY4tY8l-195" style="edgeStyle=orthogonalEdgeStyle;rounded=0;orthogonalLoop=1;jettySize=auto;html=1;" parent="1" source="f9h9eiQ0I-5DAJY4tY8l-192" edge="1">
          <mxGeometry relative="1" as="geometry">
            <mxPoint x="3245" y="120" as="targetPoint" />
          </mxGeometry>
        </mxCell>
        <mxCell id="f9h9eiQ0I-5DAJY4tY8l-192" value="Input Ruang Kelas" style="ellipse;shape=umlControl;whiteSpace=wrap;html=1;" parent="1" vertex="1">
          <mxGeometry x="3485" y="80" width="70" height="80" as="geometry" />
        </mxCell>
        <mxCell id="f9h9eiQ0I-5DAJY4tY8l-193" style="edgeStyle=orthogonalEdgeStyle;rounded=0;orthogonalLoop=1;jettySize=auto;html=1;entryX=0.493;entryY=0.128;entryDx=0;entryDy=0;entryPerimeter=0;" parent="1" source="f9h9eiQ0I-5DAJY4tY8l-183" target="f9h9eiQ0I-5DAJY4tY8l-192" edge="1">
          <mxGeometry relative="1" as="geometry" />
        </mxCell>
        <mxCell id="f9h9eiQ0I-5DAJY4tY8l-194" value="Ruang Kelas Detail" style="shape=umlBoundary;whiteSpace=wrap;html=1;" parent="1" vertex="1">
          <mxGeometry x="3135" y="80" width="100" height="80" as="geometry" />
        </mxCell>
        <mxCell id="f9h9eiQ0I-5DAJY4tY8l-198" style="edgeStyle=orthogonalEdgeStyle;rounded=0;orthogonalLoop=1;jettySize=auto;html=1;entryX=0.5;entryY=1;entryDx=0;entryDy=0;" parent="1" source="f9h9eiQ0I-5DAJY4tY8l-196" target="f9h9eiQ0I-5DAJY4tY8l-190" edge="1">
          <mxGeometry relative="1" as="geometry" />
        </mxCell>
        <mxCell id="f9h9eiQ0I-5DAJY4tY8l-196" value="Setujui Ruang Kelas" style="ellipse;shape=umlControl;whiteSpace=wrap;html=1;" parent="1" vertex="1">
          <mxGeometry x="3485" y="270" width="70" height="80" as="geometry" />
        </mxCell>
        <mxCell id="f9h9eiQ0I-5DAJY4tY8l-197" style="edgeStyle=orthogonalEdgeStyle;rounded=0;orthogonalLoop=1;jettySize=auto;html=1;entryX=0.493;entryY=0.045;entryDx=0;entryDy=0;entryPerimeter=0;" parent="1" source="f9h9eiQ0I-5DAJY4tY8l-192" target="f9h9eiQ0I-5DAJY4tY8l-196" edge="1">
          <mxGeometry relative="1" as="geometry" />
        </mxCell>
        <mxCell id="f9h9eiQ0I-5DAJY4tY8l-217" style="edgeStyle=orthogonalEdgeStyle;rounded=0;orthogonalLoop=1;jettySize=auto;html=1;" parent="1" source="f9h9eiQ0I-5DAJY4tY8l-218" target="f9h9eiQ0I-5DAJY4tY8l-220" edge="1">
          <mxGeometry relative="1" as="geometry" />
        </mxCell>
        <mxCell id="f9h9eiQ0I-5DAJY4tY8l-218" value="Dekan" style="shape=umlActor;verticalLabelPosition=bottom;verticalAlign=top;html=1;" parent="1" vertex="1">
          <mxGeometry x="2555" y="1210" width="30" height="60" as="geometry" />
        </mxCell>
        <mxCell id="f9h9eiQ0I-5DAJY4tY8l-219" style="edgeStyle=orthogonalEdgeStyle;rounded=0;orthogonalLoop=1;jettySize=auto;html=1;" parent="1" source="f9h9eiQ0I-5DAJY4tY8l-220" target="f9h9eiQ0I-5DAJY4tY8l-223" edge="1">
          <mxGeometry relative="1" as="geometry" />
        </mxCell>
        <mxCell id="f9h9eiQ0I-5DAJY4tY8l-220" value="Dashboard&lt;div&gt;Page&lt;/div&gt;" style="shape=umlBoundary;whiteSpace=wrap;html=1;" parent="1" vertex="1">
          <mxGeometry x="2795" y="1200" width="100" height="80" as="geometry" />
        </mxCell>
        <mxCell id="f9h9eiQ0I-5DAJY4tY8l-221" style="edgeStyle=orthogonalEdgeStyle;rounded=0;orthogonalLoop=1;jettySize=auto;html=1;" parent="1" source="f9h9eiQ0I-5DAJY4tY8l-223" target="f9h9eiQ0I-5DAJY4tY8l-224" edge="1">
          <mxGeometry relative="1" as="geometry" />
        </mxCell>
        <mxCell id="f9h9eiQ0I-5DAJY4tY8l-222" value="Click Jadwal Kuliah Menu" style="edgeLabel;html=1;align=center;verticalAlign=middle;resizable=0;points=[];" parent="f9h9eiQ0I-5DAJY4tY8l-221" vertex="1" connectable="0">
          <mxGeometry x="0.0667" y="2" relative="1" as="geometry">
            <mxPoint as="offset" />
          </mxGeometry>
        </mxCell>
        <mxCell id="f9h9eiQ0I-5DAJY4tY8l-223" value="Display&lt;div&gt;Dashboard&lt;/div&gt;" style="ellipse;shape=umlControl;whiteSpace=wrap;html=1;" parent="1" vertex="1">
          <mxGeometry x="3145" y="1200" width="70" height="80" as="geometry" />
        </mxCell>
        <mxCell id="f9h9eiQ0I-5DAJY4tY8l-224" value="Display Jadwal Kuliah Page" style="ellipse;shape=umlControl;whiteSpace=wrap;html=1;" parent="1" vertex="1">
          <mxGeometry x="3145" y="1400" width="70" height="80" as="geometry" />
        </mxCell>
        <mxCell id="f9h9eiQ0I-5DAJY4tY8l-225" value="Jadwal Kuliah&lt;div&gt;Page&lt;/div&gt;" style="shape=umlBoundary;whiteSpace=wrap;html=1;" parent="1" vertex="1">
          <mxGeometry x="2795" y="1400" width="100" height="80" as="geometry" />
        </mxCell>
        <mxCell id="f9h9eiQ0I-5DAJY4tY8l-226" style="edgeStyle=orthogonalEdgeStyle;rounded=0;orthogonalLoop=1;jettySize=auto;html=1;entryX=1.013;entryY=0.5;entryDx=0;entryDy=0;entryPerimeter=0;" parent="1" source="f9h9eiQ0I-5DAJY4tY8l-224" target="f9h9eiQ0I-5DAJY4tY8l-225" edge="1">
          <mxGeometry relative="1" as="geometry" />
        </mxCell>
        <mxCell id="f9h9eiQ0I-5DAJY4tY8l-227" value="Database&lt;div&gt;Jadwal&amp;nbsp;&lt;br&gt;Kuliah&lt;/div&gt;" style="ellipse;shape=umlEntity;whiteSpace=wrap;html=1;" parent="1" vertex="1">
          <mxGeometry x="3425" y="1400" width="80" height="80" as="geometry" />
        </mxCell>
        <mxCell id="f9h9eiQ0I-5DAJY4tY8l-228" style="edgeStyle=orthogonalEdgeStyle;rounded=0;orthogonalLoop=1;jettySize=auto;html=1;entryX=1;entryY=0.5;entryDx=0;entryDy=0;entryPerimeter=0;" parent="1" source="f9h9eiQ0I-5DAJY4tY8l-227" target="f9h9eiQ0I-5DAJY4tY8l-224" edge="1">
          <mxGeometry relative="1" as="geometry" />
        </mxCell>
        <mxCell id="f9h9eiQ0I-5DAJY4tY8l-231" style="edgeStyle=orthogonalEdgeStyle;rounded=0;orthogonalLoop=1;jettySize=auto;html=1;entryX=0.493;entryY=0.128;entryDx=0;entryDy=0;entryPerimeter=0;" parent="1" source="f9h9eiQ0I-5DAJY4tY8l-224" edge="1">
          <mxGeometry relative="1" as="geometry">
            <mxPoint x="3179.51" y="1590.2399999999998" as="targetPoint" />
          </mxGeometry>
        </mxCell>
        <mxCell id="f9h9eiQ0I-5DAJY4tY8l-233" style="edgeStyle=orthogonalEdgeStyle;rounded=0;orthogonalLoop=1;jettySize=auto;html=1;entryX=0.5;entryY=1;entryDx=0;entryDy=0;" parent="1" source="f9h9eiQ0I-5DAJY4tY8l-234" target="f9h9eiQ0I-5DAJY4tY8l-227" edge="1">
          <mxGeometry relative="1" as="geometry" />
        </mxCell>
        <mxCell id="f9h9eiQ0I-5DAJY4tY8l-234" value="Setujui Jadwal Kuliah" style="ellipse;shape=umlControl;whiteSpace=wrap;html=1;" parent="1" vertex="1">
          <mxGeometry x="3145" y="1590" width="70" height="80" as="geometry" />
        </mxCell>
        <mxCell id="f9h9eiQ0I-5DAJY4tY8l-236" value="&lt;font style=&quot;font-size: 32px;&quot;&gt;Dekan Menyetujui jadwal kuliah yang diberikan kaprodi&lt;/font&gt;" style="text;html=1;align=center;verticalAlign=middle;resizable=0;points=[];autosize=1;strokeColor=none;fillColor=none;" parent="1" vertex="1">
          <mxGeometry x="2650" y="1058" width="800" height="50" as="geometry" />
        </mxCell>
        <mxCell id="f9h9eiQ0I-5DAJY4tY8l-240" value="&lt;font style=&quot;font-size: 32px;&quot;&gt;Mahasiswa Mengisi IRS&lt;/font&gt;" style="text;html=1;align=center;verticalAlign=middle;resizable=0;points=[];autosize=1;strokeColor=none;fillColor=none;" parent="1" vertex="1">
          <mxGeometry x="4370" y="-2170" width="360" height="50" as="geometry" />
        </mxCell>
        <mxCell id="fX9UT5zbdEOFNoqCjNZW-1" value="Actor" style="shape=umlActor;verticalLabelPosition=bottom;verticalAlign=top;html=1;" parent="1" vertex="1">
          <mxGeometry x="4370" y="-1970" width="30" height="70" as="geometry" />
        </mxCell>
        <mxCell id="fX9UT5zbdEOFNoqCjNZW-21" style="edgeStyle=orthogonalEdgeStyle;rounded=0;orthogonalLoop=1;jettySize=auto;html=1;exitX=0.584;exitY=0.004;exitDx=0;exitDy=0;exitPerimeter=0;startArrow=classic;startFill=1;endArrow=none;endFill=0;entryX=-0.008;entryY=0.599;entryDx=0;entryDy=0;entryPerimeter=0;" parent="1" source="fX9UT5zbdEOFNoqCjNZW-2" target="fX9UT5zbdEOFNoqCjNZW-6" edge="1">
          <mxGeometry relative="1" as="geometry" />
        </mxCell>
        <mxCell id="fX9UT5zbdEOFNoqCjNZW-2" value="Dashboard&lt;div&gt;Page&lt;/div&gt;" style="shape=umlBoundary;whiteSpace=wrap;html=1;" parent="1" vertex="1">
          <mxGeometry x="4550" y="-1982.5" width="110" height="95" as="geometry" />
        </mxCell>
        <mxCell id="fX9UT5zbdEOFNoqCjNZW-5" style="edgeStyle=orthogonalEdgeStyle;rounded=0;orthogonalLoop=1;jettySize=auto;html=1;entryX=0.115;entryY=0.496;entryDx=0;entryDy=0;entryPerimeter=0;" parent="1" source="fX9UT5zbdEOFNoqCjNZW-1" target="fX9UT5zbdEOFNoqCjNZW-2" edge="1">
          <mxGeometry relative="1" as="geometry" />
        </mxCell>
        <mxCell id="fX9UT5zbdEOFNoqCjNZW-6" value="Display dashboard page" style="ellipse;shape=umlControl;whiteSpace=wrap;html=1;" parent="1" vertex="1">
          <mxGeometry x="4675" y="-2097.5" width="90" height="105" as="geometry" />
        </mxCell>
        <mxCell id="fX9UT5zbdEOFNoqCjNZW-8" value="Display IRS Page" style="ellipse;shape=umlControl;whiteSpace=wrap;html=1;" parent="1" vertex="1">
          <mxGeometry x="4810" y="-1992.5" width="90" height="105" as="geometry" />
        </mxCell>
        <mxCell id="fX9UT5zbdEOFNoqCjNZW-13" style="edgeStyle=orthogonalEdgeStyle;rounded=0;orthogonalLoop=1;jettySize=auto;html=1;entryX=0.018;entryY=0.551;entryDx=0;entryDy=0;entryPerimeter=0;exitX=1.015;exitY=0.507;exitDx=0;exitDy=0;exitPerimeter=0;" parent="1" source="fX9UT5zbdEOFNoqCjNZW-2" target="fX9UT5zbdEOFNoqCjNZW-8" edge="1">
          <mxGeometry relative="1" as="geometry" />
        </mxCell>
        <mxCell id="fX9UT5zbdEOFNoqCjNZW-14" value="Click Akademik menu" style="edgeLabel;html=1;align=center;verticalAlign=middle;resizable=0;points=[];" parent="fX9UT5zbdEOFNoqCjNZW-13" vertex="1" connectable="0">
          <mxGeometry x="0.1845" y="-1" relative="1" as="geometry">
            <mxPoint x="-24" y="-1" as="offset" />
          </mxGeometry>
        </mxCell>
        <mxCell id="KgDqdu3lI9y8hDSoOavW-2" value="Isi Program Studi&lt;span style=&quot;color: rgba(0, 0, 0, 0); font-family: monospace; font-size: 0px; text-align: start; text-wrap: nowrap;&quot;&gt;%3CmxGraphModel%3E%3Croot%3E%3CmxCell%20id%3D%220%22%2F%3E%3CmxCell%20id%3D%221%22%20parent%3D%220%22%2F%3E%3CmxCell%20id%3D%222%22%20value%3D%22Isi%20kuota%20kelas%22%20style%3D%22ellipse%3Bshape%3DumlControl%3BwhiteSpace%3Dwrap%3Bhtml%3D1%3B%22%20vertex%3D%221%22%20parent%3D%221%22%3E%3CmxGeometry%20x%3D%221065%22%20y%3D%22210%22%20width%3D%2270%22%20height%3D%2280%22%20as%3D%22geometry%22%2F%3E%3C%2FmxCell%3E%3C%2Froot%3E%3C%2FmxGraphModel%3E&lt;/span&gt;" style="ellipse;shape=umlControl;whiteSpace=wrap;html=1;" parent="1" vertex="1">
          <mxGeometry x="845" y="-141.89" width="70" height="80" as="geometry" />
        </mxCell>
        <mxCell id="iuv_yNmqDHB2O8cJPHZk-1" value="Actor" style="shape=umlActor;verticalLabelPosition=bottom;verticalAlign=top;html=1;" parent="1" vertex="1">
          <mxGeometry x="4360" y="-1518" width="30" height="70" as="geometry" />
        </mxCell>
        <mxCell id="KgDqdu3lI9y8hDSoOavW-3" style="edgeStyle=orthogonalEdgeStyle;rounded=0;orthogonalLoop=1;jettySize=auto;html=1;entryX=0;entryY=0.5;entryDx=0;entryDy=0;entryPerimeter=0;endArrow=none;endFill=0;" parent="1" source="f9h9eiQ0I-5DAJY4tY8l-95" target="KgDqdu3lI9y8hDSoOavW-2" edge="1">
          <mxGeometry relative="1" as="geometry" />
        </mxCell>
        <mxCell id="fX9UT5zbdEOFNoqCjNZW-15" value="IRS page" style="shape=umlBoundary;whiteSpace=wrap;html=1;" parent="1" vertex="1">
          <mxGeometry x="4970" y="-1987.5" width="110" height="95" as="geometry" />
        </mxCell>
        <mxCell id="KgDqdu3lI9y8hDSoOavW-6" style="edgeStyle=orthogonalEdgeStyle;rounded=0;orthogonalLoop=1;jettySize=auto;html=1;entryX=1;entryY=0.5;entryDx=0;entryDy=0;endArrow=none;endFill=0;" parent="1" source="KgDqdu3lI9y8hDSoOavW-4" target="f9h9eiQ0I-5DAJY4tY8l-87" edge="1">
          <mxGeometry relative="1" as="geometry">
            <Array as="points">
              <mxPoint x="875" y="-441.89" />
            </Array>
          </mxGeometry>
        </mxCell>
        <mxCell id="iuv_yNmqDHB2O8cJPHZk-2" value="Dashboard&lt;div&gt;Page&lt;/div&gt;" style="shape=umlBoundary;whiteSpace=wrap;html=1;" parent="1" vertex="1">
          <mxGeometry x="4540" y="-1530.5" width="110" height="95" as="geometry" />
        </mxCell>
        <mxCell id="KgDqdu3lI9y8hDSoOavW-4" value="Konfirmasi" style="ellipse;shape=umlControl;whiteSpace=wrap;html=1;" parent="1" vertex="1">
          <mxGeometry x="845" y="-321.89" width="70" height="80" as="geometry" />
        </mxCell>
        <mxCell id="iuv_yNmqDHB2O8cJPHZk-3" style="edgeStyle=orthogonalEdgeStyle;rounded=0;orthogonalLoop=1;jettySize=auto;html=1;entryX=0.115;entryY=0.496;entryDx=0;entryDy=0;entryPerimeter=0;endArrow=none;endFill=0;" parent="1" source="iuv_yNmqDHB2O8cJPHZk-1" target="iuv_yNmqDHB2O8cJPHZk-2" edge="1">
          <mxGeometry relative="1" as="geometry" />
        </mxCell>
        <mxCell id="KgDqdu3lI9y8hDSoOavW-5" style="edgeStyle=orthogonalEdgeStyle;rounded=0;orthogonalLoop=1;jettySize=auto;html=1;entryX=0.495;entryY=0.983;entryDx=0;entryDy=0;entryPerimeter=0;endArrow=none;endFill=0;" parent="1" source="KgDqdu3lI9y8hDSoOavW-2" target="KgDqdu3lI9y8hDSoOavW-4" edge="1">
          <mxGeometry relative="1" as="geometry" />
        </mxCell>
        <mxCell id="tVq97jun2TS6qL-DBoWV-26" value="" style="edgeStyle=orthogonalEdgeStyle;rounded=0;orthogonalLoop=1;jettySize=auto;html=1;" parent="1" source="fX9UT5zbdEOFNoqCjNZW-22" target="tVq97jun2TS6qL-DBoWV-25" edge="1">
          <mxGeometry relative="1" as="geometry" />
        </mxCell>
        <mxCell id="fX9UT5zbdEOFNoqCjNZW-22" value="Pilih Jadwal Matakuliah" style="ellipse;shape=umlControl;whiteSpace=wrap;html=1;" parent="1" vertex="1">
          <mxGeometry x="5320" y="-1997.5" width="90" height="105" as="geometry" />
        </mxCell>
        <mxCell id="iuv_yNmqDHB2O8cJPHZk-4" value="Display dashboard page" style="ellipse;shape=umlControl;whiteSpace=wrap;html=1;" parent="1" vertex="1">
          <mxGeometry x="4780" y="-1535.5" width="90" height="105" as="geometry" />
        </mxCell>
        <mxCell id="iuv_yNmqDHB2O8cJPHZk-10" value="Database KHS" style="ellipse;shape=umlEntity;whiteSpace=wrap;html=1;" parent="1" vertex="1">
          <mxGeometry x="4960" y="-1138.89" width="100" height="93.89" as="geometry" />
        </mxCell>
        <mxCell id="iuv_yNmqDHB2O8cJPHZk-5" style="edgeStyle=orthogonalEdgeStyle;rounded=0;orthogonalLoop=1;jettySize=auto;html=1;entryX=0.988;entryY=0.495;entryDx=0;entryDy=0;entryPerimeter=0;" parent="1" source="iuv_yNmqDHB2O8cJPHZk-4" target="iuv_yNmqDHB2O8cJPHZk-2" edge="1">
          <mxGeometry relative="1" as="geometry" />
        </mxCell>
        <mxCell id="iuv_yNmqDHB2O8cJPHZk-6" value="Display dashboard KHS" style="ellipse;shape=umlControl;whiteSpace=wrap;html=1;" parent="1" vertex="1">
          <mxGeometry x="4780" y="-1355" width="90" height="105" as="geometry" />
        </mxCell>
        <mxCell id="iuv_yNmqDHB2O8cJPHZk-13" style="edgeStyle=orthogonalEdgeStyle;rounded=0;orthogonalLoop=1;jettySize=auto;html=1;" parent="1" source="iuv_yNmqDHB2O8cJPHZk-12" target="iuv_yNmqDHB2O8cJPHZk-6" edge="1">
          <mxGeometry relative="1" as="geometry" />
        </mxCell>
        <mxCell id="iuv_yNmqDHB2O8cJPHZk-12" value="KHS Page" style="shape=umlBoundary;whiteSpace=wrap;html=1;" parent="1" vertex="1">
          <mxGeometry x="4540" y="-1350" width="110" height="95" as="geometry" />
        </mxCell>
        <mxCell id="iuv_yNmqDHB2O8cJPHZk-14" value="Display Semester Terpilih" style="ellipse;shape=umlControl;whiteSpace=wrap;html=1;" parent="1" vertex="1">
          <mxGeometry x="4780" y="-1150" width="90" height="105" as="geometry" />
        </mxCell>
        <mxCell id="iuv_yNmqDHB2O8cJPHZk-18" style="edgeStyle=orthogonalEdgeStyle;rounded=0;orthogonalLoop=1;jettySize=auto;html=1;entryX=0.504;entryY=0.107;entryDx=0;entryDy=0;entryPerimeter=0;" parent="1" source="iuv_yNmqDHB2O8cJPHZk-6" target="iuv_yNmqDHB2O8cJPHZk-14" edge="1">
          <mxGeometry relative="1" as="geometry" />
        </mxCell>
        <mxCell id="iuv_yNmqDHB2O8cJPHZk-19" style="edgeStyle=orthogonalEdgeStyle;rounded=0;orthogonalLoop=1;jettySize=auto;html=1;entryX=1.029;entryY=0.602;entryDx=0;entryDy=0;entryPerimeter=0;" parent="1" source="iuv_yNmqDHB2O8cJPHZk-10" target="iuv_yNmqDHB2O8cJPHZk-14" edge="1">
          <mxGeometry relative="1" as="geometry">
            <Array as="points">
              <mxPoint x="5030" y="-1087" />
              <mxPoint x="5020" y="-1087" />
            </Array>
          </mxGeometry>
        </mxCell>
        <mxCell id="FYZbQtLjGNRvOYyjjsep-4" style="edgeStyle=orthogonalEdgeStyle;rounded=0;orthogonalLoop=1;jettySize=auto;html=1;entryX=0.167;entryY=0.502;entryDx=0;entryDy=0;entryPerimeter=0;" parent="1" source="fX9UT5zbdEOFNoqCjNZW-8" target="fX9UT5zbdEOFNoqCjNZW-15" edge="1">
          <mxGeometry relative="1" as="geometry" />
        </mxCell>
        <mxCell id="vzW3fzOS96b3kGGrr5m--2" value="Jadwal Matakuliah" style="ellipse;shape=umlEntity;whiteSpace=wrap;html=1;" parent="1" vertex="1">
          <mxGeometry x="5310" y="-1840" width="100" height="93.89" as="geometry" />
        </mxCell>
        <mxCell id="nlUZOoDZ0D_HqVT4nJBs-1" style="edgeStyle=orthogonalEdgeStyle;rounded=0;orthogonalLoop=1;jettySize=auto;html=1;" parent="1" source="iuv_yNmqDHB2O8cJPHZk-4" target="iuv_yNmqDHB2O8cJPHZk-6" edge="1">
          <mxGeometry relative="1" as="geometry" />
        </mxCell>
        <mxCell id="KgDqdu3lI9y8hDSoOavW-13" value="Display Nama Mahasiswa Not Found" style="ellipse;shape=umlControl;whiteSpace=wrap;html=1;fillColor=#f8cecc;strokeColor=#b85450;" parent="1" vertex="1">
          <mxGeometry x="2075" y="-1475.5" width="70" height="80" as="geometry" />
        </mxCell>
        <mxCell id="tVq97jun2TS6qL-DBoWV-6" style="edgeStyle=orthogonalEdgeStyle;rounded=0;orthogonalLoop=1;jettySize=auto;html=1;entryX=1;entryY=0.5;entryDx=0;entryDy=0;" parent="1" source="tVq97jun2TS6qL-DBoWV-3" target="tVq97jun2TS6qL-DBoWV-5" edge="1">
          <mxGeometry relative="1" as="geometry">
            <Array as="points">
              <mxPoint x="5190" y="-1793" />
            </Array>
          </mxGeometry>
        </mxCell>
        <mxCell id="KgDqdu3lI9y8hDSoOavW-14" style="edgeStyle=orthogonalEdgeStyle;rounded=0;orthogonalLoop=1;jettySize=auto;html=1;entryX=1.031;entryY=0.508;entryDx=0;entryDy=0;entryPerimeter=0;endArrow=none;endFill=0;" parent="1" source="f9h9eiQ0I-5DAJY4tY8l-162" target="KgDqdu3lI9y8hDSoOavW-13" edge="1">
          <mxGeometry relative="1" as="geometry" />
        </mxCell>
        <mxCell id="KgDqdu3lI9y8hDSoOavW-17" value="Nama Mahasiswa&lt;div&gt;Tidak Tersedia&lt;/div&gt;" style="edgeLabel;html=1;align=center;verticalAlign=middle;resizable=0;points=[];" parent="KgDqdu3lI9y8hDSoOavW-14" connectable="0" vertex="1">
          <mxGeometry x="-0.0238" y="-1" relative="1" as="geometry">
            <mxPoint as="offset" />
          </mxGeometry>
        </mxCell>
        <mxCell id="tVq97jun2TS6qL-DBoWV-3" value="Mencari Matakuliah" style="ellipse;shape=umlControl;whiteSpace=wrap;html=1;" parent="1" vertex="1">
          <mxGeometry x="5140" y="-1997.5" width="90" height="105" as="geometry" />
        </mxCell>
        <mxCell id="tVq97jun2TS6qL-DBoWV-4" style="edgeStyle=orthogonalEdgeStyle;rounded=0;orthogonalLoop=1;jettySize=auto;html=1;entryX=-0.001;entryY=0.553;entryDx=0;entryDy=0;entryPerimeter=0;" parent="1" source="fX9UT5zbdEOFNoqCjNZW-15" target="tVq97jun2TS6qL-DBoWV-3" edge="1">
          <mxGeometry relative="1" as="geometry" />
        </mxCell>
        <mxCell id="tVq97jun2TS6qL-DBoWV-5" value="Matakuliah" style="ellipse;shape=umlEntity;whiteSpace=wrap;html=1;" parent="1" vertex="1">
          <mxGeometry x="4980" y="-1840" width="100" height="93.89" as="geometry" />
        </mxCell>
        <mxCell id="tVq97jun2TS6qL-DBoWV-7" style="edgeStyle=orthogonalEdgeStyle;rounded=0;orthogonalLoop=1;jettySize=auto;html=1;entryX=-0.009;entryY=0.502;entryDx=0;entryDy=0;entryPerimeter=0;" parent="1" source="tVq97jun2TS6qL-DBoWV-3" target="fX9UT5zbdEOFNoqCjNZW-22" edge="1">
          <mxGeometry relative="1" as="geometry" />
        </mxCell>
        <mxCell id="tVq97jun2TS6qL-DBoWV-8" value="Ketemu" style="edgeLabel;html=1;align=center;verticalAlign=middle;resizable=0;points=[];" parent="tVq97jun2TS6qL-DBoWV-7" vertex="1" connectable="0">
          <mxGeometry x="-0.324" relative="1" as="geometry">
            <mxPoint x="10" as="offset" />
          </mxGeometry>
        </mxCell>
        <mxCell id="tVq97jun2TS6qL-DBoWV-9" value="Display Not Found Page" style="ellipse;shape=umlControl;whiteSpace=wrap;html=1;fillColor=#f8cecc;strokeColor=#b85450;" parent="1" vertex="1">
          <mxGeometry x="5320" y="-2150" width="90" height="105" as="geometry" />
        </mxCell>
        <mxCell id="tVq97jun2TS6qL-DBoWV-10" style="edgeStyle=orthogonalEdgeStyle;rounded=0;orthogonalLoop=1;jettySize=auto;html=1;entryX=0;entryY=0.571;entryDx=0;entryDy=0;entryPerimeter=0;exitX=0.424;exitY=0.125;exitDx=0;exitDy=0;exitPerimeter=0;" parent="1" source="tVq97jun2TS6qL-DBoWV-3" target="tVq97jun2TS6qL-DBoWV-9" edge="1">
          <mxGeometry relative="1" as="geometry">
            <Array as="points">
              <mxPoint x="5180" y="-1984" />
              <mxPoint x="5180" y="-2090" />
            </Array>
          </mxGeometry>
        </mxCell>
        <mxCell id="tVq97jun2TS6qL-DBoWV-11" value="Tidak Ketemu" style="edgeLabel;html=1;align=center;verticalAlign=middle;resizable=0;points=[];" parent="tVq97jun2TS6qL-DBoWV-10" vertex="1" connectable="0">
          <mxGeometry x="0.0337" y="-1" relative="1" as="geometry">
            <mxPoint x="20" as="offset" />
          </mxGeometry>
        </mxCell>
        <mxCell id="tVq97jun2TS6qL-DBoWV-14" value="" style="endArrow=classic;html=1;rounded=0;exitX=0.5;exitY=0;exitDx=0;exitDy=0;entryX=0.442;entryY=0.999;entryDx=0;entryDy=0;entryPerimeter=0;" parent="1" source="vzW3fzOS96b3kGGrr5m--2" target="fX9UT5zbdEOFNoqCjNZW-22" edge="1">
          <mxGeometry width="50" height="50" relative="1" as="geometry">
            <mxPoint x="5260" y="-1820" as="sourcePoint" />
            <mxPoint x="5310" y="-1870" as="targetPoint" />
          </mxGeometry>
        </mxCell>
        <mxCell id="KgDqdu3lI9y8hDSoOavW-9" value="&lt;font style=&quot;font-size: 9px;&quot;&gt;Display Gedung/Ruang Kelas Not Found Page&lt;/font&gt;" style="ellipse;shape=umlControl;whiteSpace=wrap;html=1;fillColor=#f8cecc;strokeColor=#b85450;" parent="1" vertex="1">
          <mxGeometry x="270" y="-331.89" width="70" height="80" as="geometry" />
        </mxCell>
        <mxCell id="KgDqdu3lI9y8hDSoOavW-11" style="edgeStyle=orthogonalEdgeStyle;rounded=0;orthogonalLoop=1;jettySize=auto;html=1;entryX=0.982;entryY=0.607;entryDx=0;entryDy=0;entryPerimeter=0;" parent="1" edge="1">
          <mxGeometry relative="1" as="geometry">
            <mxPoint x="516.26" y="-281.88999999999953" as="sourcePoint" />
            <mxPoint x="345.0000000000002" y="-283.3300000000005" as="targetPoint" />
            <Array as="points">
              <mxPoint x="431" y="-280.89" />
              <mxPoint x="346" y="-280.89" />
              <mxPoint x="346" y="-282.89" />
            </Array>
          </mxGeometry>
        </mxCell>
        <mxCell id="a33D1vszi0ZCZpd4tzC0-1" value="&lt;font style=&quot;font-size: 32px;&quot;&gt;Mahasiswa Melihat KHS&lt;/font&gt;" style="text;html=1;align=center;verticalAlign=middle;resizable=0;points=[];autosize=1;strokeColor=none;fillColor=none;" parent="1" vertex="1">
          <mxGeometry x="4365" y="-1610" width="370" height="50" as="geometry" />
        </mxCell>
        <mxCell id="tVq97jun2TS6qL-DBoWV-21" value="IRS Mahasiswa" style="ellipse;shape=umlEntity;whiteSpace=wrap;html=1;" parent="1" vertex="1">
          <mxGeometry x="5660" y="-1991.9499999999998" width="100" height="93.89" as="geometry" />
        </mxCell>
        <mxCell id="a33D1vszi0ZCZpd4tzC0-2" value="&lt;font style=&quot;font-size: 32px;&quot;&gt;Mahasiswa Melihat IRS&lt;/font&gt;" style="text;html=1;align=center;verticalAlign=middle;resizable=0;points=[];autosize=1;strokeColor=none;fillColor=none;" parent="1" vertex="1">
          <mxGeometry x="4425" y="-1000" width="360" height="50" as="geometry" />
        </mxCell>
        <mxCell id="tVq97jun2TS6qL-DBoWV-27" style="edgeStyle=orthogonalEdgeStyle;rounded=0;orthogonalLoop=1;jettySize=auto;html=1;entryX=0;entryY=0.5;entryDx=0;entryDy=0;" parent="1" source="tVq97jun2TS6qL-DBoWV-25" target="tVq97jun2TS6qL-DBoWV-21" edge="1">
          <mxGeometry relative="1" as="geometry" />
        </mxCell>
        <mxCell id="tVq97jun2TS6qL-DBoWV-28" value="Menyimpan" style="edgeLabel;html=1;align=center;verticalAlign=middle;resizable=0;points=[];" parent="tVq97jun2TS6qL-DBoWV-27" connectable="0" vertex="1">
          <mxGeometry x="-0.2892" y="1" relative="1" as="geometry">
            <mxPoint x="11" y="1" as="offset" />
          </mxGeometry>
        </mxCell>
        <mxCell id="a33D1vszi0ZCZpd4tzC0-6" style="edgeStyle=orthogonalEdgeStyle;rounded=0;orthogonalLoop=1;jettySize=auto;html=1;" parent="1" source="a33D1vszi0ZCZpd4tzC0-3" target="a33D1vszi0ZCZpd4tzC0-4" edge="1">
          <mxGeometry relative="1" as="geometry" />
        </mxCell>
        <mxCell id="a33D1vszi0ZCZpd4tzC0-3" value="Actor" style="shape=umlActor;verticalLabelPosition=bottom;verticalAlign=top;html=1;" parent="1" vertex="1">
          <mxGeometry x="4365" y="-910" width="30" height="70" as="geometry" />
        </mxCell>
        <mxCell id="tVq97jun2TS6qL-DBoWV-25" value="Konfirmasi Jadwal Matakuliah" style="ellipse;shape=umlControl;whiteSpace=wrap;html=1;" parent="1" vertex="1">
          <mxGeometry x="5460" y="-1997.5" width="90" height="105" as="geometry" />
        </mxCell>
        <mxCell id="a33D1vszi0ZCZpd4tzC0-4" value="Dashboard&lt;div&gt;Page&lt;/div&gt;" style="shape=umlBoundary;whiteSpace=wrap;html=1;" parent="1" vertex="1">
          <mxGeometry x="4540" y="-922.5" width="110" height="95" as="geometry" />
        </mxCell>
        <mxCell id="vem_wYWAN4_mhOh-QC_E-2" value="Kaprodi" style="shape=umlActor;verticalLabelPosition=bottom;verticalAlign=top;html=1;" parent="1" vertex="1">
          <mxGeometry x="-590" y="760" width="30" height="60" as="geometry" />
        </mxCell>
        <mxCell id="vem_wYWAN4_mhOh-QC_E-10" style="edgeStyle=orthogonalEdgeStyle;rounded=0;orthogonalLoop=1;jettySize=auto;html=1;" parent="1" source="vem_wYWAN4_mhOh-QC_E-4" target="vem_wYWAN4_mhOh-QC_E-5" edge="1">
          <mxGeometry relative="1" as="geometry" />
        </mxCell>
        <mxCell id="a33D1vszi0ZCZpd4tzC0-8" style="edgeStyle=orthogonalEdgeStyle;rounded=0;orthogonalLoop=1;jettySize=auto;html=1;entryX=0.591;entryY=1.011;entryDx=0;entryDy=0;entryPerimeter=0;" parent="1" source="a33D1vszi0ZCZpd4tzC0-5" target="a33D1vszi0ZCZpd4tzC0-4" edge="1">
          <mxGeometry relative="1" as="geometry" />
        </mxCell>
        <mxCell id="vem_wYWAN4_mhOh-QC_E-4" value="dashboard&lt;div&gt;Page&lt;/div&gt;" style="shape=umlBoundary;whiteSpace=wrap;html=1;" parent="1" vertex="1">
          <mxGeometry x="-435" y="750" width="100" height="80" as="geometry" />
        </mxCell>
        <mxCell id="a33D1vszi0ZCZpd4tzC0-5" value="Display dashboard page" style="ellipse;shape=umlControl;whiteSpace=wrap;html=1;" parent="1" vertex="1">
          <mxGeometry x="4560" y="-720" width="90" height="105" as="geometry" />
        </mxCell>
        <mxCell id="vem_wYWAN4_mhOh-QC_E-5" value="Display&lt;div&gt;Dashboard&lt;/div&gt;&lt;div&gt;Page&lt;/div&gt;" style="ellipse;shape=umlControl;whiteSpace=wrap;html=1;" parent="1" vertex="1">
          <mxGeometry x="-225" y="750" width="70" height="80" as="geometry" />
        </mxCell>
        <mxCell id="a33D1vszi0ZCZpd4tzC0-9" value="Display dashboard IRS page" style="ellipse;shape=umlControl;whiteSpace=wrap;html=1;" parent="1" vertex="1">
          <mxGeometry x="4810" y="-932.5" width="90" height="105" as="geometry" />
        </mxCell>
        <mxCell id="vem_wYWAN4_mhOh-QC_E-9" style="edgeStyle=orthogonalEdgeStyle;rounded=0;orthogonalLoop=1;jettySize=auto;html=1;entryX=0.05;entryY=0.508;entryDx=0;entryDy=0;entryPerimeter=0;" parent="1" source="vem_wYWAN4_mhOh-QC_E-2" target="vem_wYWAN4_mhOh-QC_E-4" edge="1">
          <mxGeometry relative="1" as="geometry" />
        </mxCell>
        <mxCell id="a33D1vszi0ZCZpd4tzC0-10" style="edgeStyle=orthogonalEdgeStyle;rounded=0;orthogonalLoop=1;jettySize=auto;html=1;entryX=0;entryY=0.548;entryDx=0;entryDy=0;entryPerimeter=0;" parent="1" source="a33D1vszi0ZCZpd4tzC0-4" target="a33D1vszi0ZCZpd4tzC0-9" edge="1">
          <mxGeometry relative="1" as="geometry" />
        </mxCell>
        <mxCell id="a33D1vszi0ZCZpd4tzC0-11" value="&lt;font style=&quot;font-size: 14px;&quot;&gt;Click Akademik menu&lt;/font&gt;" style="edgeLabel;html=1;align=center;verticalAlign=middle;resizable=0;points=[];" parent="a33D1vszi0ZCZpd4tzC0-10" vertex="1" connectable="0">
          <mxGeometry x="-0.1625" y="5" relative="1" as="geometry">
            <mxPoint x="13" y="5" as="offset" />
          </mxGeometry>
        </mxCell>
        <mxCell id="vem_wYWAN4_mhOh-QC_E-16" style="edgeStyle=orthogonalEdgeStyle;rounded=0;orthogonalLoop=1;jettySize=auto;html=1;" parent="1" source="vem_wYWAN4_mhOh-QC_E-11" target="vem_wYWAN4_mhOh-QC_E-15" edge="1">
          <mxGeometry relative="1" as="geometry" />
        </mxCell>
        <mxCell id="a33D1vszi0ZCZpd4tzC0-13" value="KHS Page" style="shape=umlBoundary;whiteSpace=wrap;html=1;" parent="1" vertex="1">
          <mxGeometry x="4790" y="-690" width="110" height="95" as="geometry" />
        </mxCell>
        <mxCell id="vem_wYWAN4_mhOh-QC_E-11" value="Display&lt;div&gt;Mahasiswa Page&lt;/div&gt;" style="ellipse;shape=umlControl;whiteSpace=wrap;html=1;" parent="1" vertex="1">
          <mxGeometry x="-225" y="920" width="70" height="80" as="geometry" />
        </mxCell>
        <mxCell id="a33D1vszi0ZCZpd4tzC0-14" style="edgeStyle=orthogonalEdgeStyle;rounded=0;orthogonalLoop=1;jettySize=auto;html=1;entryX=0.55;entryY=0.99;entryDx=0;entryDy=0;entryPerimeter=0;exitX=0.636;exitY=0;exitDx=0;exitDy=0;exitPerimeter=0;" parent="1" source="a33D1vszi0ZCZpd4tzC0-13" target="a33D1vszi0ZCZpd4tzC0-9" edge="1">
          <mxGeometry relative="1" as="geometry" />
        </mxCell>
        <mxCell id="vem_wYWAN4_mhOh-QC_E-12" style="edgeStyle=orthogonalEdgeStyle;rounded=0;orthogonalLoop=1;jettySize=auto;html=1;entryX=0.495;entryY=0.121;entryDx=0;entryDy=0;entryPerimeter=0;" parent="1" source="vem_wYWAN4_mhOh-QC_E-5" target="vem_wYWAN4_mhOh-QC_E-11" edge="1">
          <mxGeometry relative="1" as="geometry" />
        </mxCell>
        <mxCell id="a33D1vszi0ZCZpd4tzC0-15" value="Display IRS yang sudah diambil" style="ellipse;shape=umlControl;whiteSpace=wrap;html=1;" parent="1" vertex="1">
          <mxGeometry x="5050" y="-927.5" width="90" height="105" as="geometry" />
        </mxCell>
        <mxCell id="vem_wYWAN4_mhOh-QC_E-13" value="&lt;div&gt;Mahasiswa Page&lt;/div&gt;" style="shape=umlBoundary;whiteSpace=wrap;html=1;" parent="1" vertex="1">
          <mxGeometry x="-435" y="920" width="100" height="80" as="geometry" />
        </mxCell>
        <mxCell id="a33D1vszi0ZCZpd4tzC0-17" style="edgeStyle=orthogonalEdgeStyle;rounded=0;orthogonalLoop=1;jettySize=auto;html=1;entryX=0;entryY=0.452;entryDx=0;entryDy=0;entryPerimeter=0;" parent="1" source="a33D1vszi0ZCZpd4tzC0-9" target="a33D1vszi0ZCZpd4tzC0-15" edge="1">
          <mxGeometry relative="1" as="geometry" />
        </mxCell>
        <mxCell id="vem_wYWAN4_mhOh-QC_E-14" style="edgeStyle=orthogonalEdgeStyle;rounded=0;orthogonalLoop=1;jettySize=auto;html=1;entryX=0.043;entryY=0.496;entryDx=0;entryDy=0;entryPerimeter=0;" parent="1" source="vem_wYWAN4_mhOh-QC_E-13" target="vem_wYWAN4_mhOh-QC_E-11" edge="1">
          <mxGeometry relative="1" as="geometry" />
        </mxCell>
        <mxCell id="a33D1vszi0ZCZpd4tzC0-18" value="Database IRS" style="ellipse;shape=umlEntity;whiteSpace=wrap;html=1;" parent="1" vertex="1">
          <mxGeometry x="5170" y="-783.8900000000001" width="100" height="93.89" as="geometry" />
        </mxCell>
        <mxCell id="vem_wYWAN4_mhOh-QC_E-15" value="Display&lt;div&gt;Mahasiswa IRS&lt;/div&gt;" style="ellipse;shape=umlControl;whiteSpace=wrap;html=1;" parent="1" vertex="1">
          <mxGeometry x="-225" y="1090" width="70" height="80" as="geometry" />
        </mxCell>
        <mxCell id="a33D1vszi0ZCZpd4tzC0-19" style="edgeStyle=orthogonalEdgeStyle;rounded=0;orthogonalLoop=1;jettySize=auto;html=1;entryX=1.01;entryY=0.492;entryDx=0;entryDy=0;entryPerimeter=0;" parent="1" source="a33D1vszi0ZCZpd4tzC0-18" target="a33D1vszi0ZCZpd4tzC0-15" edge="1">
          <mxGeometry relative="1" as="geometry">
            <Array as="points">
              <mxPoint x="5220" y="-876" />
            </Array>
          </mxGeometry>
        </mxCell>
        <mxCell id="9EQRnSQ-POrHLfq1BQXv-2" style="edgeStyle=orthogonalEdgeStyle;rounded=0;orthogonalLoop=1;jettySize=auto;html=1;" edge="1" parent="1" source="9EQRnSQ-POrHLfq1BQXv-1">
          <mxGeometry relative="1" as="geometry">
            <mxPoint x="-153" y="1130" as="targetPoint" />
          </mxGeometry>
        </mxCell>
        <mxCell id="9EQRnSQ-POrHLfq1BQXv-1" value="IRS" style="ellipse;shape=umlEntity;whiteSpace=wrap;html=1;" vertex="1" parent="1">
          <mxGeometry x="-5" y="1090" width="80" height="80" as="geometry" />
        </mxCell>
        <mxCell id="9EQRnSQ-POrHLfq1BQXv-3" value="Daftar&amp;nbsp;&lt;div&gt;IRS&amp;nbsp;&lt;/div&gt;&lt;div&gt;Mahasiswa&lt;/div&gt;" style="shape=umlBoundary;whiteSpace=wrap;html=1;" vertex="1" parent="1">
          <mxGeometry x="-435" y="1090" width="100" height="80" as="geometry" />
        </mxCell>
        <mxCell id="9EQRnSQ-POrHLfq1BQXv-4" style="edgeStyle=orthogonalEdgeStyle;rounded=0;orthogonalLoop=1;jettySize=auto;html=1;entryX=1.023;entryY=0.497;entryDx=0;entryDy=0;entryPerimeter=0;" edge="1" parent="1" source="vem_wYWAN4_mhOh-QC_E-15" target="9EQRnSQ-POrHLfq1BQXv-3">
          <mxGeometry relative="1" as="geometry" />
        </mxCell>
        <mxCell id="9EQRnSQ-POrHLfq1BQXv-5" value="Input&lt;div&gt;Nama&lt;/div&gt;&lt;div&gt;Mahasiswa&lt;/div&gt;" style="ellipse;shape=umlControl;whiteSpace=wrap;html=1;" vertex="1" parent="1">
          <mxGeometry x="-225" y="1240" width="70" height="80" as="geometry" />
        </mxCell>
        <mxCell id="9EQRnSQ-POrHLfq1BQXv-6" style="edgeStyle=orthogonalEdgeStyle;rounded=0;orthogonalLoop=1;jettySize=auto;html=1;entryX=0.493;entryY=0.13;entryDx=0;entryDy=0;entryPerimeter=0;" edge="1" parent="1" source="vem_wYWAN4_mhOh-QC_E-15" target="9EQRnSQ-POrHLfq1BQXv-5">
          <mxGeometry relative="1" as="geometry" />
        </mxCell>
        <mxCell id="9EQRnSQ-POrHLfq1BQXv-13" style="edgeStyle=orthogonalEdgeStyle;rounded=0;orthogonalLoop=1;jettySize=auto;html=1;" edge="1" parent="1" source="9EQRnSQ-POrHLfq1BQXv-7">
          <mxGeometry relative="1" as="geometry">
            <mxPoint x="-395" y="1430" as="targetPoint" />
          </mxGeometry>
        </mxCell>
        <mxCell id="9EQRnSQ-POrHLfq1BQXv-7" value="&lt;font style=&quot;font-size: 9px;&quot;&gt;Display Nama, NIM, Angkatan, IRS mahasiswa&amp;nbsp;&lt;/font&gt;" style="ellipse;shape=umlControl;whiteSpace=wrap;html=1;" vertex="1" parent="1">
          <mxGeometry x="-225" y="1390" width="70" height="80" as="geometry" />
        </mxCell>
        <mxCell id="9EQRnSQ-POrHLfq1BQXv-8" style="edgeStyle=orthogonalEdgeStyle;rounded=0;orthogonalLoop=1;jettySize=auto;html=1;entryX=0.493;entryY=0.112;entryDx=0;entryDy=0;entryPerimeter=0;" edge="1" parent="1" source="9EQRnSQ-POrHLfq1BQXv-5" target="9EQRnSQ-POrHLfq1BQXv-7">
          <mxGeometry relative="1" as="geometry" />
        </mxCell>
        <mxCell id="9EQRnSQ-POrHLfq1BQXv-14" value="Nama Mahasiswa Terdaftar" style="edgeLabel;html=1;align=center;verticalAlign=middle;resizable=0;points=[];" vertex="1" connectable="0" parent="9EQRnSQ-POrHLfq1BQXv-8">
          <mxGeometry x="-0.1734" y="4" relative="1" as="geometry">
            <mxPoint x="-1" y="-4" as="offset" />
          </mxGeometry>
        </mxCell>
        <mxCell id="9EQRnSQ-POrHLfq1BQXv-11" style="edgeStyle=orthogonalEdgeStyle;rounded=0;orthogonalLoop=1;jettySize=auto;html=1;entryX=0.5;entryY=1;entryDx=0;entryDy=0;" edge="1" parent="1" source="9EQRnSQ-POrHLfq1BQXv-9" target="9EQRnSQ-POrHLfq1BQXv-1">
          <mxGeometry relative="1" as="geometry" />
        </mxCell>
        <mxCell id="9EQRnSQ-POrHLfq1BQXv-9" value="Setujui&amp;nbsp;&lt;div&gt;IRS&lt;/div&gt;" style="ellipse;shape=umlControl;whiteSpace=wrap;html=1;" vertex="1" parent="1">
          <mxGeometry x="-225" y="1530" width="70" height="80" as="geometry" />
        </mxCell>
        <mxCell id="9EQRnSQ-POrHLfq1BQXv-10" style="edgeStyle=orthogonalEdgeStyle;rounded=0;orthogonalLoop=1;jettySize=auto;html=1;entryX=0.493;entryY=0.109;entryDx=0;entryDy=0;entryPerimeter=0;" edge="1" parent="1" source="9EQRnSQ-POrHLfq1BQXv-7" target="9EQRnSQ-POrHLfq1BQXv-9">
          <mxGeometry relative="1" as="geometry" />
        </mxCell>
        <mxCell id="9EQRnSQ-POrHLfq1BQXv-12" value="Tidak setujui IRS" style="ellipse;shape=umlControl;whiteSpace=wrap;html=1;fillColor=#f8cecc;strokeColor=#b85450;" vertex="1" parent="1">
          <mxGeometry x="-435" y="1390" width="70" height="80" as="geometry" />
        </mxCell>
        <mxCell id="9EQRnSQ-POrHLfq1BQXv-15" value="Display&lt;div&gt;Mahasiswa&lt;/div&gt;&lt;div&gt;Not Found&lt;/div&gt;" style="ellipse;shape=umlControl;whiteSpace=wrap;html=1;fillColor=#f8cecc;strokeColor=#b85450;" vertex="1" parent="1">
          <mxGeometry x="-435" y="1248" width="70" height="80" as="geometry" />
        </mxCell>
        <mxCell id="9EQRnSQ-POrHLfq1BQXv-16" style="edgeStyle=orthogonalEdgeStyle;rounded=0;orthogonalLoop=1;jettySize=auto;html=1;entryX=0.957;entryY=0.405;entryDx=0;entryDy=0;entryPerimeter=0;" edge="1" parent="1" source="9EQRnSQ-POrHLfq1BQXv-5" target="9EQRnSQ-POrHLfq1BQXv-15">
          <mxGeometry relative="1" as="geometry" />
        </mxCell>
        <mxCell id="9EQRnSQ-POrHLfq1BQXv-17" value="&lt;font style=&quot;font-size: 32px;&quot;&gt;Kaprodi menyetujui / tidak menyetujui&amp;nbsp; Pergantian Mata kuliah Mahasiswa&lt;/font&gt;" style="text;html=1;align=center;verticalAlign=middle;resizable=0;points=[];autosize=1;strokeColor=none;fillColor=none;" vertex="1" parent="1">
          <mxGeometry x="-805" y="520" width="1070" height="50" as="geometry" />
        </mxCell>
        <mxCell id="9EQRnSQ-POrHLfq1BQXv-18" value="&lt;font style=&quot;font-size: 32px;&quot;&gt;Kaprodi melihat perkembangan mahasiswa&lt;/font&gt;" style="text;html=1;align=center;verticalAlign=middle;resizable=0;points=[];autosize=1;strokeColor=none;fillColor=none;" vertex="1" parent="1">
          <mxGeometry x="65" y="1910" width="640" height="50" as="geometry" />
        </mxCell>
        <mxCell id="9EQRnSQ-POrHLfq1BQXv-19" value="Actor" style="shape=umlActor;verticalLabelPosition=bottom;verticalAlign=top;html=1;" vertex="1" parent="1">
          <mxGeometry x="145" y="-1615.5" width="30" height="60" as="geometry" />
        </mxCell>
        <mxCell id="9EQRnSQ-POrHLfq1BQXv-20" value="Kaprodi" style="shape=umlActor;verticalLabelPosition=bottom;verticalAlign=top;html=1;" vertex="1" parent="1">
          <mxGeometry x="20" y="2010" width="30" height="60" as="geometry" />
        </mxCell>
        <mxCell id="9EQRnSQ-POrHLfq1BQXv-21" value="Dashboard&lt;div&gt;Page&lt;/div&gt;" style="shape=umlBoundary;whiteSpace=wrap;html=1;" vertex="1" parent="1">
          <mxGeometry x="225" y="2000" width="100" height="80" as="geometry" />
        </mxCell>
        <mxCell id="9EQRnSQ-POrHLfq1BQXv-22" style="edgeStyle=orthogonalEdgeStyle;rounded=0;orthogonalLoop=1;jettySize=auto;html=1;" edge="1" parent="1" source="9EQRnSQ-POrHLfq1BQXv-20">
          <mxGeometry relative="1" as="geometry">
            <mxPoint x="225" y="2040" as="targetPoint" />
          </mxGeometry>
        </mxCell>
        <mxCell id="9EQRnSQ-POrHLfq1BQXv-24" value="Display&lt;div&gt;Dashboard&lt;/div&gt;&lt;div&gt;Page&lt;/div&gt;" style="ellipse;shape=umlControl;whiteSpace=wrap;html=1;" vertex="1" parent="1">
          <mxGeometry x="505" y="2000" width="70" height="80" as="geometry" />
        </mxCell>
        <mxCell id="9EQRnSQ-POrHLfq1BQXv-25" style="edgeStyle=orthogonalEdgeStyle;rounded=0;orthogonalLoop=1;jettySize=auto;html=1;entryX=1.014;entryY=0.508;entryDx=0;entryDy=0;entryPerimeter=0;" edge="1" parent="1" source="9EQRnSQ-POrHLfq1BQXv-24" target="9EQRnSQ-POrHLfq1BQXv-21">
          <mxGeometry relative="1" as="geometry" />
        </mxCell>
        <mxCell id="9EQRnSQ-POrHLfq1BQXv-26" value="&lt;font style=&quot;font-size: 9px;&quot;&gt;Display Status Perkembangan Mahasiswa&amp;nbsp;&lt;/font&gt;" style="ellipse;shape=umlControl;whiteSpace=wrap;html=1;" vertex="1" parent="1">
          <mxGeometry x="505" y="2200" width="70" height="80" as="geometry" />
        </mxCell>
        <mxCell id="9EQRnSQ-POrHLfq1BQXv-28" style="edgeStyle=orthogonalEdgeStyle;rounded=0;orthogonalLoop=1;jettySize=auto;html=1;entryX=0.505;entryY=0.092;entryDx=0;entryDy=0;entryPerimeter=0;" edge="1" parent="1" source="9EQRnSQ-POrHLfq1BQXv-24" target="9EQRnSQ-POrHLfq1BQXv-26">
          <mxGeometry relative="1" as="geometry" />
        </mxCell>
        <mxCell id="9EQRnSQ-POrHLfq1BQXv-29" value="Status Mahasiswa&lt;div&gt;Page&lt;/div&gt;" style="shape=umlBoundary;whiteSpace=wrap;html=1;" vertex="1" parent="1">
          <mxGeometry x="230" y="2200" width="100" height="80" as="geometry" />
        </mxCell>
        <mxCell id="9EQRnSQ-POrHLfq1BQXv-30" style="edgeStyle=orthogonalEdgeStyle;rounded=0;orthogonalLoop=1;jettySize=auto;html=1;entryX=0.97;entryY=0.508;entryDx=0;entryDy=0;entryPerimeter=0;" edge="1" parent="1" source="9EQRnSQ-POrHLfq1BQXv-26" target="9EQRnSQ-POrHLfq1BQXv-29">
          <mxGeometry relative="1" as="geometry" />
        </mxCell>
        <mxCell id="9EQRnSQ-POrHLfq1BQXv-31" value="Mahasiswa" style="ellipse;shape=umlEntity;whiteSpace=wrap;html=1;" vertex="1" parent="1">
          <mxGeometry x="745" y="2200" width="80" height="80" as="geometry" />
        </mxCell>
        <mxCell id="9EQRnSQ-POrHLfq1BQXv-32" style="edgeStyle=orthogonalEdgeStyle;rounded=0;orthogonalLoop=1;jettySize=auto;html=1;entryX=1.057;entryY=0.5;entryDx=0;entryDy=0;entryPerimeter=0;" edge="1" parent="1" source="9EQRnSQ-POrHLfq1BQXv-31" target="9EQRnSQ-POrHLfq1BQXv-26">
          <mxGeometry relative="1" as="geometry" />
        </mxCell>
        <mxCell id="9EQRnSQ-POrHLfq1BQXv-43" style="edgeStyle=orthogonalEdgeStyle;rounded=0;orthogonalLoop=1;jettySize=auto;html=1;" edge="1" parent="1" source="9EQRnSQ-POrHLfq1BQXv-33" target="9EQRnSQ-POrHLfq1BQXv-40">
          <mxGeometry relative="1" as="geometry" />
        </mxCell>
        <mxCell id="9EQRnSQ-POrHLfq1BQXv-47" value="Nama Mahasiswa ditemukan" style="edgeLabel;html=1;align=center;verticalAlign=middle;resizable=0;points=[];" vertex="1" connectable="0" parent="9EQRnSQ-POrHLfq1BQXv-43">
          <mxGeometry x="-0.4218" relative="1" as="geometry">
            <mxPoint as="offset" />
          </mxGeometry>
        </mxCell>
        <mxCell id="9EQRnSQ-POrHLfq1BQXv-33" value="Input Nama Mahasiswa" style="ellipse;shape=umlControl;whiteSpace=wrap;html=1;" vertex="1" parent="1">
          <mxGeometry x="595" y="2380" width="70" height="80" as="geometry" />
        </mxCell>
        <mxCell id="9EQRnSQ-POrHLfq1BQXv-34" style="edgeStyle=orthogonalEdgeStyle;rounded=0;orthogonalLoop=1;jettySize=auto;html=1;entryX=0.495;entryY=0.075;entryDx=0;entryDy=0;entryPerimeter=0;" edge="1" parent="1" source="9EQRnSQ-POrHLfq1BQXv-26" target="9EQRnSQ-POrHLfq1BQXv-33">
          <mxGeometry relative="1" as="geometry">
            <Array as="points">
              <mxPoint x="540" y="2330" />
              <mxPoint x="630" y="2330" />
            </Array>
          </mxGeometry>
        </mxCell>
        <mxCell id="9EQRnSQ-POrHLfq1BQXv-35" value="Input angkatan Mahasiswa" style="ellipse;shape=umlControl;whiteSpace=wrap;html=1;" vertex="1" parent="1">
          <mxGeometry x="405" y="2380" width="70" height="80" as="geometry" />
        </mxCell>
        <mxCell id="9EQRnSQ-POrHLfq1BQXv-36" style="edgeStyle=orthogonalEdgeStyle;rounded=0;orthogonalLoop=1;jettySize=auto;html=1;entryX=0.552;entryY=0.125;entryDx=0;entryDy=0;entryPerimeter=0;" edge="1" parent="1" source="9EQRnSQ-POrHLfq1BQXv-26" target="9EQRnSQ-POrHLfq1BQXv-35">
          <mxGeometry relative="1" as="geometry">
            <Array as="points">
              <mxPoint x="540" y="2330" />
              <mxPoint x="444" y="2330" />
            </Array>
          </mxGeometry>
        </mxCell>
        <mxCell id="9EQRnSQ-POrHLfq1BQXv-40" value="Display Nama Mahasiswa" style="ellipse;shape=umlControl;whiteSpace=wrap;html=1;fillColor=#f8cecc;strokeColor=#b85450;" vertex="1" parent="1">
          <mxGeometry x="565" y="2540" width="70" height="80" as="geometry" />
        </mxCell>
        <mxCell id="9EQRnSQ-POrHLfq1BQXv-41" value="Display Nama Mahasiswa&lt;div&gt;NotFound&lt;/div&gt;" style="ellipse;shape=umlControl;whiteSpace=wrap;html=1;fillColor=#f8cecc;strokeColor=#b85450;" vertex="1" parent="1">
          <mxGeometry x="430" y="2540" width="70" height="80" as="geometry" />
        </mxCell>
        <mxCell id="9EQRnSQ-POrHLfq1BQXv-44" style="edgeStyle=orthogonalEdgeStyle;rounded=0;orthogonalLoop=1;jettySize=auto;html=1;entryX=0.989;entryY=0.601;entryDx=0;entryDy=0;entryPerimeter=0;" edge="1" parent="1" source="9EQRnSQ-POrHLfq1BQXv-33" target="9EQRnSQ-POrHLfq1BQXv-41">
          <mxGeometry relative="1" as="geometry" />
        </mxCell>
        <mxCell id="9EQRnSQ-POrHLfq1BQXv-48" value="Nama&lt;div&gt;Mahasiswa&lt;/div&gt;&lt;div&gt;Tidak&amp;nbsp;&lt;/div&gt;&lt;div&gt;ditemukan&lt;/div&gt;" style="edgeLabel;html=1;align=center;verticalAlign=middle;resizable=0;points=[];" vertex="1" connectable="0" parent="9EQRnSQ-POrHLfq1BQXv-44">
          <mxGeometry x="-0.0294" y="-1" relative="1" as="geometry">
            <mxPoint x="-7" y="29" as="offset" />
          </mxGeometry>
        </mxCell>
        <mxCell id="9EQRnSQ-POrHLfq1BQXv-45" style="edgeStyle=orthogonalEdgeStyle;rounded=0;orthogonalLoop=1;jettySize=auto;html=1;entryX=0.509;entryY=0.101;entryDx=0;entryDy=0;entryPerimeter=0;" edge="1" parent="1" source="9EQRnSQ-POrHLfq1BQXv-35" target="9EQRnSQ-POrHLfq1BQXv-41">
          <mxGeometry relative="1" as="geometry" />
        </mxCell>
        <mxCell id="9EQRnSQ-POrHLfq1BQXv-49" value="Angkatan Mahasiswa&amp;nbsp;&lt;div&gt;Tidak ditemukan&lt;/div&gt;" style="edgeLabel;html=1;align=center;verticalAlign=middle;resizable=0;points=[];" vertex="1" connectable="0" parent="9EQRnSQ-POrHLfq1BQXv-45">
          <mxGeometry x="-0.6798" y="-2" relative="1" as="geometry">
            <mxPoint as="offset" />
          </mxGeometry>
        </mxCell>
        <mxCell id="9EQRnSQ-POrHLfq1BQXv-46" style="edgeStyle=orthogonalEdgeStyle;rounded=0;orthogonalLoop=1;jettySize=auto;html=1;entryX=0.429;entryY=1;entryDx=0;entryDy=0;entryPerimeter=0;" edge="1" parent="1" source="9EQRnSQ-POrHLfq1BQXv-35" target="9EQRnSQ-POrHLfq1BQXv-40">
          <mxGeometry relative="1" as="geometry">
            <Array as="points">
              <mxPoint x="375" y="2420" />
              <mxPoint x="375" y="2640" />
              <mxPoint x="595" y="2640" />
            </Array>
          </mxGeometry>
        </mxCell>
        <mxCell id="9EQRnSQ-POrHLfq1BQXv-50" value="Angkatan Mahasiswa ditemukan" style="edgeLabel;html=1;align=center;verticalAlign=middle;resizable=0;points=[];" vertex="1" connectable="0" parent="9EQRnSQ-POrHLfq1BQXv-46">
          <mxGeometry x="0.379" relative="1" as="geometry">
            <mxPoint as="offset" />
          </mxGeometry>
        </mxCell>
        <mxCell id="9EQRnSQ-POrHLfq1BQXv-51" style="edgeStyle=orthogonalEdgeStyle;rounded=0;orthogonalLoop=1;jettySize=auto;html=1;entryX=1.004;entryY=0.685;entryDx=0;entryDy=0;entryPerimeter=0;" edge="1" parent="1" source="9EQRnSQ-POrHLfq1BQXv-31" target="9EQRnSQ-POrHLfq1BQXv-40">
          <mxGeometry relative="1" as="geometry">
            <Array as="points">
              <mxPoint x="785" y="2595" />
            </Array>
          </mxGeometry>
        </mxCell>
      </root>
    </mxGraphModel>
  </diagram>
  <diagram id="9HcU2amrgL2dp1FwgtfP" name="Squence diagram">
    <mxGraphModel dx="786" dy="421" grid="1" gridSize="10" guides="1" tooltips="1" connect="1" arrows="1" fold="1" page="1" pageScale="1" pageWidth="850" pageHeight="1100" math="0" shadow="0">
      <root>
        <mxCell id="0" />
        <mxCell id="1" parent="0" />
      </root>
    </mxGraphModel>
  </diagram>
</mxfile>
